<svg width="18" height="18" viewBox="0 0 18 18" fill="none" xmlns="http://www.w3.org/2000/svg">
<path d="M9 0C7.21997 0 5.47991 0.527841 3.99987 1.51677C2.51983 2.50571 1.36628 3.91131 0.685088 5.55585C0.00389956 7.20038 -0.17433 9.00998 0.172936 10.7558C0.520203 12.5016 1.37737 14.1053 2.63604 15.364C3.89471 16.6226 5.49836 17.4798 7.24419 17.8271C8.99002 18.1743 10.7996 17.9961 12.4442 17.3149C14.0887 16.6337 15.4943 15.4802 16.4832 14.0001C17.4722 12.5201 18 10.78 18 9C17.9975 6.61382 17.0485 4.3261 15.3612 2.63882C13.6739 0.95154 11.3862 0.00251984 9 0ZM16.5834 8.30769H14.4935C14.3381 7.08864 13.7823 5.9557 12.9133 5.08672C12.0443 4.21775 10.9114 3.66193 9.69231 3.50654V1.41663C11.4645 1.58071 13.1235 2.35944 14.3821 3.61794C15.6406 4.87645 16.4193 6.53547 16.5834 8.30769ZM8.30769 8.30769H4.905C5.04993 7.45796 5.45515 6.6742 6.06467 6.06467C6.6742 5.45514 7.45796 5.04993 8.30769 4.905V8.30769ZM8.30769 9.69231V13.095C7.45796 12.9501 6.6742 12.5449 6.06467 11.9353C5.45515 11.3258 5.04993 10.542 4.905 9.69231H8.30769ZM9.69231 9.69231H13.095C12.9501 10.542 12.5449 11.3258 11.9353 11.9353C11.3258 12.5449 10.542 12.9501 9.69231 13.095V9.69231ZM9.69231 8.30769V4.905C10.542 5.04993 11.3258 5.45514 11.9353 6.06467C12.5449 6.6742 12.9501 7.45796 13.095 8.30769H9.69231ZM8.30769 1.41663V3.50654C7.08864 3.66193 5.9557 4.21775 5.08673 5.08672C4.21775 5.9557 3.66194 7.08864 3.50654 8.30769H1.41664C1.58072 6.53547 2.35944 4.87645 3.61795 3.61794C4.87645 2.35944 6.53548 1.58071 8.30769 1.41663ZM1.41664 9.69231H3.50654C3.66194 10.9114 4.21775 12.0443 5.08673 12.9133C5.9557 13.7822 7.08864 14.3381 8.30769 14.4935V16.5834C6.53548 16.4193 4.87645 15.6406 3.61795 14.3821C2.35944 13.1235 1.58072 11.4645 1.41664 9.69231ZM9.69231 16.5834V14.4935C10.9114 14.3381 12.0443 13.7822 12.9133 12.9133C13.7823 12.0443 14.3381 10.9114 14.4935 9.69231H16.5834C16.4193 11.4645 15.6406 13.1235 14.3821 14.3821C13.1235 15.6406 11.4645 16.4193 9.69231 16.5834Z" fill="#80080A"/>
</svg>
