<svg width="18" height="18" viewBox="0 0 18 18" fill="none" xmlns="http://www.w3.org/2000/svg">
<path d="M10.7404 9.83093C10.6807 9.77116 10.6098 9.72374 10.5317 9.69139C10.4537 9.65905 10.3701 9.6424 10.2856 9.6424C10.2011 9.6424 10.1175 9.65905 10.0394 9.69139C9.96138 9.72374 9.89048 9.77116 9.83078 9.83093L8.3571 11.3054L6.69459 9.6429L8.16907 8.16922C8.28969 8.0486 8.35746 7.885 8.35746 7.71442C8.35746 7.54384 8.28969 7.38024 8.16907 7.25962C8.04845 7.139 7.88486 7.07124 7.71427 7.07124C7.54369 7.07124 7.38009 7.139 7.25947 7.25962L5.78579 8.73411L4.31212 7.25962C4.19149 7.139 4.0279 7.07124 3.85732 7.07124C3.68673 7.07124 3.52314 7.139 3.40252 7.25962C3.2819 7.38024 3.21413 7.54384 3.21413 7.71442C3.21413 7.885 3.2819 8.0486 3.40252 8.16922L3.91276 8.67866L2.03892 10.5517C1.80009 10.7905 1.61064 11.074 1.48138 11.386C1.35212 11.698 1.28559 12.0324 1.28559 12.3701C1.28559 12.7078 1.35212 13.0422 1.48138 13.3542C1.61064 13.6662 1.80009 13.9497 2.03892 14.1885L2.47122 14.62L0.188384 16.902C0.128659 16.9617 0.0812824 17.0326 0.0489594 17.1107C0.0166364 17.1887 0 17.2724 0 17.3568C0 17.4413 0.0166364 17.5249 0.0489594 17.603C0.0812824 17.681 0.128659 17.7519 0.188384 17.8116C0.309005 17.9322 0.472601 18 0.643184 18C0.727648 18 0.811285 17.9834 0.88932 17.951C0.967354 17.9187 1.03826 17.8713 1.09798 17.8116L3.38002 15.5288L3.81151 15.9611C4.05029 16.1999 4.33377 16.3894 4.64578 16.5186C4.95778 16.6479 5.29219 16.7144 5.62991 16.7144C5.96763 16.7144 6.30204 16.6479 6.61404 16.5186C6.92604 16.3894 7.20953 16.1999 7.4483 15.9611L9.32134 14.0872L9.83078 14.5975C9.8905 14.6572 9.96141 14.7046 10.0394 14.7369C10.1175 14.7692 10.2011 14.7859 10.2856 14.7859C10.37 14.7859 10.4537 14.7692 10.5317 14.7369C10.6097 14.7046 10.6807 14.6572 10.7404 14.5975C10.8001 14.5378 10.8475 14.4669 10.8798 14.3888C10.9121 14.3108 10.9288 14.2271 10.9288 14.1427C10.9288 14.0582 10.9121 13.9746 10.8798 13.8965C10.8475 13.8185 10.8001 13.7476 10.7404 13.6879L9.26589 12.2142L10.7404 10.7405C10.8001 10.6808 10.8476 10.6099 10.8799 10.5319C10.9123 10.4539 10.9289 10.3702 10.9289 10.2857C10.9289 10.2012 10.9123 10.1176 10.8799 10.0396C10.8476 9.96152 10.8001 9.89063 10.7404 9.83093ZM6.5387 15.0539C6.29762 15.2948 5.97074 15.4302 5.62991 15.4302C5.28908 15.4302 4.9622 15.2948 4.72111 15.0539L2.94852 13.2789C2.7076 13.0378 2.57226 12.7109 2.57226 12.3701C2.57226 12.0293 2.7076 11.7024 2.94852 11.4613L4.82155 9.58746L8.41254 13.1784L6.5387 15.0539ZM17.8115 0.188532C17.7518 0.128765 17.6809 0.0813504 17.6028 0.0490006C17.5248 0.0166508 17.4411 0 17.3567 0C17.2722 0 17.1885 0.0166508 17.1105 0.0490006C17.0325 0.0813504 16.9616 0.128765 16.9019 0.188532L14.6198 2.47137L14.1883 2.03907C13.7056 1.55771 13.0517 1.2874 12.3699 1.2874C11.6882 1.2874 11.0343 1.55771 10.5515 2.03907L8.67851 3.91291L8.16907 3.40266C8.04845 3.28204 7.88486 3.21428 7.71427 3.21428C7.54369 3.21428 7.38009 3.28204 7.25947 3.40266C7.13885 3.52328 7.07109 3.68688 7.07109 3.85746C7.07109 4.02805 7.13885 4.19164 7.25947 4.31226L13.6877 10.7405C13.7475 10.8003 13.8184 10.8476 13.8964 10.88C13.9744 10.9123 14.0581 10.9289 14.1425 10.9289C14.227 10.9289 14.3106 10.9123 14.3887 10.88C14.4667 10.8476 14.5376 10.8003 14.5973 10.7405C14.6571 10.6808 14.7044 10.6099 14.7368 10.5319C14.7691 10.4538 14.7857 10.3702 14.7857 10.2857C14.7857 10.2013 14.7691 10.1176 14.7368 10.0396C14.7044 9.96156 14.6571 9.89065 14.5973 9.83093L14.0871 9.32149L15.9609 7.44845C16.1998 7.20968 16.3892 6.92619 16.5185 6.61419C16.6477 6.30219 16.7143 5.96777 16.7143 5.63006C16.7143 5.29234 16.6477 4.95793 16.5185 4.64593C16.3892 4.33392 16.1998 4.05044 15.9609 3.81166L15.5286 3.38017L17.8115 1.09813C17.8712 1.03843 17.9187 0.967534 17.951 0.889496C17.9834 0.811458 18 0.727809 18 0.643332C18 0.558855 17.9834 0.475206 17.951 0.397168C17.9187 0.31913 17.8712 0.248234 17.8115 0.188532ZM15.0513 6.53644L13.1783 8.41269L9.58731 4.8217L11.4611 2.94867C11.7022 2.70774 12.0291 2.57241 12.3699 2.57241C12.7108 2.57241 13.0377 2.70774 13.2787 2.94867L15.0513 4.71644C15.1714 4.8359 15.2666 4.97789 15.3316 5.13427C15.3966 5.29064 15.43 5.45831 15.43 5.62765C15.43 5.79698 15.3966 5.96465 15.3316 6.12103C15.2666 6.2774 15.1714 6.41939 15.0513 6.53885V6.53644Z" fill="#80080A"/>
</svg>
