<svg width="18" height="14" viewBox="0 0 18 14" fill="none" xmlns="http://www.w3.org/2000/svg">
<path d="M15.9231 0H2.07692C1.52609 0 0.997815 0.221249 0.608317 0.615076C0.218818 1.0089 0 1.54305 0 2.1V11.9C0 12.457 0.218818 12.9911 0.608317 13.3849C0.997815 13.7788 1.52609 14 2.07692 14H15.9231C16.4739 14 17.0022 13.7788 17.3917 13.3849C17.7812 12.9911 18 12.457 18 11.9V2.1C18 1.54305 17.7812 1.0089 17.3917 0.615076C17.0022 0.221249 16.4739 0 15.9231 0ZM1.38462 4.2H16.6154V5.6H12.3914C12.0723 5.60018 11.763 5.71184 11.5159 5.91609C11.2688 6.12034 11.099 6.40464 11.0354 6.72087C10.9384 7.19373 10.6832 7.61834 10.3128 7.92318C9.94235 8.22802 9.47934 8.39445 9.00173 8.39445C8.52412 8.39445 8.06111 8.22802 7.69068 7.92318C7.32026 7.61834 7.06506 7.19373 6.96808 6.72087C6.90432 6.40405 6.73408 6.1193 6.48626 5.91498C6.23844 5.71066 5.92832 5.59937 5.60856 5.6H1.38462V4.2ZM2.07692 1.4H15.9231C16.1067 1.4 16.2828 1.47375 16.4126 1.60503C16.5424 1.7363 16.6154 1.91435 16.6154 2.1V2.8H1.38462V2.1C1.38462 1.91435 1.45755 1.7363 1.58739 1.60503C1.71722 1.47375 1.89331 1.4 2.07692 1.4ZM15.9231 12.6H2.07692C1.89331 12.6 1.71722 12.5263 1.58739 12.395C1.45755 12.2637 1.38462 12.0857 1.38462 11.9V7H5.60769C5.767 7.79073 6.19166 8.50151 6.80977 9.01201C7.42788 9.5225 8.20146 9.80136 8.99957 9.80136C9.79767 9.80136 10.5713 9.5225 11.1894 9.01201C11.8075 8.50151 12.2321 7.79073 12.3914 7H16.6154V11.9C16.6154 12.0857 16.5424 12.2637 16.4126 12.395C16.2828 12.5263 16.1067 12.6 15.9231 12.6Z" fill="#80080A"/>
</svg>
