<svg width="34" height="40" viewBox="0 0 34 40" fill="none" xmlns="http://www.w3.org/2000/svg">
<path fill-rule="evenodd" clip-rule="evenodd" d="M30.8911 0.231873H3.08549C0.831748 0.231873 0 1.06594 0 3.327V30.6103C0 30.8662 0.0102897 31.1039 0.0328299 31.3241C0.0841404 31.8176 0.0938008 32.2959 0.551535 32.8404C0.596266 32.8937 1.06359 33.2424 1.06359 33.2424C1.31496 33.3661 1.4866 33.4571 1.77011 33.5715L15.462 39.3239C16.1728 39.6507 16.47 39.778 16.9862 39.7677V39.7678C16.9869 39.7678 16.9876 39.7678 16.9883 39.7678C16.989 39.7678 16.9896 39.7678 16.9903 39.7678V39.7677C17.5065 39.778 17.8038 39.6507 18.5146 39.3239L32.2064 33.5715C32.49 33.4571 32.6616 33.3661 32.913 33.2424C32.913 33.2424 33.3803 32.8937 33.425 32.8404C33.8827 32.2959 33.8924 31.8176 33.9437 31.3241C33.9662 31.1039 33.9766 30.8662 33.9766 30.6103V3.327C33.9766 1.06594 33.1448 0.231873 30.8911 0.231873Z" fill="white"/>
<path d="M29.0287 27.6617L29.0224 27.7247L29.0161 27.7938L29.0035 27.8568L28.9848 27.9197L28.9726 27.9763L28.9537 28.0393L28.9286 28.0959L28.9035 28.1463L28.8788 28.2029L28.8474 28.2532L28.8161 28.3036L28.7788 28.354L28.7473 28.4043L28.7101 28.4483L28.6661 28.4924L28.6288 28.5302L28.5787 28.5742L28.5351 28.612L28.4849 28.6498L28.4351 28.6808L28.3852 28.7186L28.3287 28.75L28.2726 28.7752L28.2165 28.8067L28.1537 28.8319L28.0914 28.8571L28.029 28.8759L27.9666 28.8948L27.9101 28.9136L27.8478 28.9263L27.7916 28.9388L27.7356 28.9514L27.6728 28.964L27.6103 28.9703L27.5543 28.9766L27.4915 28.9829L27.4229 28.9892L27.3604 28.9955H27.2981H27.2294H27.1604H27.098L27.0355 28.9892H26.9669L26.9045 28.9829L26.8418 28.9766L26.7731 28.9703L26.7107 28.9577L26.6484 28.9514L26.5856 28.9388L26.5231 28.9263L26.4608 28.9136L26.3984 28.9011L26.3357 28.8823L26.2795 28.8696L26.2172 28.8507L26.1547 28.8319L26.0983 28.8067L26.0359 28.7878L25.9798 28.769L25.9174 28.7438L25.8609 28.7186L25.8048 28.6934L25.7487 28.6623L25.6922 28.6371L25.6361 28.6056L25.5863 28.5742L25.5298 28.5427L25.4799 28.5113L25.4297 28.4798L25.3799 28.4421L25.3301 28.4043L25.2799 28.3665L25.2299 28.3288L25.1861 28.291L25.1362 28.247L25.1739 28.1967L25.2174 28.1526L25.2551 28.1022L25.2987 28.0519L25.3364 28.0078L25.3736 27.9575L25.4176 27.9071L25.4548 27.8631L25.4988 27.8128L25.5361 27.7687L25.58 27.7184L25.6173 27.668L25.6549 27.6239L25.6985 27.5736L25.7361 27.5232L25.7797 27.4792L25.8173 27.4289L25.8672 27.4666L25.9233 27.5044L25.9735 27.5422L26.0296 27.5799L26.0798 27.6114L26.136 27.6491L26.1857 27.6806L26.2423 27.7057L26.2921 27.7372L26.3482 27.7624L26.4047 27.7876L26.4608 27.8128L26.517 27.8316L26.5734 27.8568L26.6358 27.8757L26.6982 27.8945L26.7543 27.9134L26.8171 27.9261L26.8794 27.9386L26.9418 27.9512L27.0105 27.9575L27.0732 27.9701H27.1356L27.2043 27.9763H27.2667H27.3416L27.4103 27.9701L27.4731 27.9575L27.5291 27.9449L27.5853 27.9323L27.6355 27.9134L27.6791 27.8883L27.7293 27.8505L27.7665 27.8064L27.7916 27.756L27.8105 27.6995L27.8167 27.6365V27.6239L27.8105 27.5484L27.7854 27.4854L27.754 27.4414L27.7104 27.4037L27.6602 27.3659L27.6103 27.3408L27.5543 27.3156L27.4915 27.2904L27.4166 27.259L27.3729 27.2464L27.3232 27.2338L27.2667 27.2148L27.2106 27.2023L27.1482 27.1834L27.0854 27.1708L27.0168 27.1519L26.9543 27.1394L26.8857 27.1205L26.8233 27.1079L26.7605 27.0891L26.6982 27.0764L26.6358 27.0575L26.5793 27.0387L26.517 27.0261L26.4608 27.0072L26.4047 26.9883L26.3482 26.9694L26.2795 26.9442L26.2172 26.919L26.1547 26.8939L26.092 26.8687L26.0359 26.8373L25.9735 26.8058L25.9233 26.7744L25.8672 26.7429L25.8173 26.7052L25.7671 26.6737L25.7236 26.6359L25.6797 26.5919L25.6361 26.5478L25.5984 26.5037L25.5612 26.4597L25.5298 26.4157L25.4988 26.3653L25.4674 26.3087L25.4423 26.265L25.4234 26.2146L25.405 26.158L25.3862 26.1076L25.3736 26.0447L25.3611 25.988L25.3548 25.9251L25.3485 25.8622L25.3422 25.793V25.7237V25.7112V25.6482L25.3485 25.5853L25.3548 25.5287L25.3611 25.4657L25.3736 25.4091L25.3862 25.3525L25.405 25.2958L25.4176 25.2392L25.4423 25.1825L25.4674 25.1259L25.4925 25.0693L25.5235 25.0126L25.5548 24.956L25.5921 24.9056L25.6299 24.8553L25.6734 24.805L25.7173 24.7609L25.7609 24.7105L25.8111 24.6665L25.8546 24.635L25.9048 24.5973L25.9547 24.5595L26.0045 24.528L26.061 24.4966L26.1171 24.4714L26.1732 24.4399L26.2297 24.4148L26.2921 24.3959L26.3544 24.3707L26.4109 24.3518L26.4608 24.3392L26.517 24.3266L26.5734 24.3141L26.6358 24.3015L26.6919 24.2889L26.7543 24.2826L26.8171 24.2763L26.8794 24.27L26.9418 24.2638H27.0042H27.0732H27.1419H27.2106L27.2792 24.27L27.3479 24.2763H27.4103L27.4793 24.2826L27.5417 24.2952L27.6103 24.3015L27.6728 24.3141L27.7293 24.3266L27.7916 24.3392L27.854 24.3518L27.9101 24.3644L27.9729 24.3833L28.029 24.4022L28.0851 24.4148L28.1479 24.4399L28.204 24.4588L28.2601 24.484L28.3162 24.5092L28.3789 24.5344L28.4351 24.5658L28.4849 24.591L28.5414 24.6225L28.5975 24.6539L28.6474 24.6854L28.7038 24.7232L28.7537 24.7546L28.8039 24.7924L28.8537 24.8302L28.9035 24.8679L28.8663 24.9183L28.8349 24.9686L28.7976 25.0189L28.7599 25.0693L28.7227 25.1259L28.6913 25.1762L28.6536 25.2266L28.6163 25.277L28.585 25.3273L28.5476 25.3777L28.51 25.428L28.4786 25.4783L28.4414 25.535L28.4036 25.5853L28.3664 25.6357L28.335 25.686L28.2977 25.7363L28.2475 25.6986L28.1915 25.6671L28.1416 25.6357L28.0914 25.5979L28.0353 25.5728L27.985 25.5412L27.929 25.516L27.8791 25.4909L27.8226 25.4657L27.7728 25.4406L27.7167 25.4217L27.6665 25.3965L27.5978 25.3777L27.5354 25.3587L27.4731 25.3399L27.4103 25.3273L27.3479 25.3147L27.2855 25.3021L27.2232 25.2958L27.1604 25.2895L27.1043 25.2832H27.0418H26.9669L26.8983 25.2958L26.8355 25.3084L26.7794 25.321L26.7296 25.3462L26.6856 25.3713L26.6295 25.4217L26.5918 25.4783L26.5672 25.535L26.5608 25.5979V25.6105L26.5672 25.6923L26.5981 25.7615L26.6232 25.7993L26.6668 25.8434L26.7233 25.8748L26.7731 25.9063L26.8355 25.9315L26.9045 25.9567L26.9795 25.9818L27.0293 25.9944L27.0792 26.0132L27.1356 26.0258L27.1917 26.0447L27.2541 26.0573L27.3232 26.0762L27.3919 26.095L27.4605 26.114L27.5291 26.1265L27.5915 26.1454L27.6602 26.1643L27.723 26.1769L27.7854 26.1957L27.8478 26.2146L27.9038 26.2335L27.9666 26.2524L28.0228 26.2713L28.0788 26.2902L28.1479 26.3149L28.2102 26.3465L28.2726 26.3716L28.335 26.403L28.3915 26.4345L28.4477 26.466L28.4974 26.4974L28.5476 26.5352L28.5975 26.5667L28.6474 26.6107L28.6976 26.6548L28.7411 26.7052L28.785 26.7492L28.8223 26.7996L28.86 26.8561L28.891 26.9065L28.9224 26.9632L28.9475 27.0135L28.9663 27.0701L28.9848 27.1267L28.9973 27.1834L29.0098 27.2464L29.0224 27.3093L29.0287 27.3722L29.035 27.4414V27.5106V27.5232V27.5925L29.0287 27.6617ZM24.6471 28.92H24.5843H24.522H24.4596H24.3972H24.3344H24.272H24.2097H24.1472H24.0782H24.0159H23.9535H23.8911H23.8283H23.766H23.7035H23.6411H23.5784H23.516H23.4536H23.3912H23.3288H23.2661H23.2037H23.1413H23.0789H23.0161H22.9537H22.8914H22.8227H22.76H22.6975H22.6352H22.5728H22.5101H22.4476H22.3853H22.3228H22.2601H22.1977H22.1354H22.0729H22.0101H21.9478H21.8854H21.823H21.7603H21.6979H21.6292H21.5668H21.5044H21.4417H21.3793H21.3168H21.2545H21.1918H21.1294H21.067V28.8571V28.7941V28.7312V28.6686V28.6056V28.5427V28.4798V28.4169V28.354V28.291V28.2281V28.1651V28.1022V28.0393V27.9763V27.9134V27.8505V27.7876V27.7309V27.668V27.6051V27.5422V27.4792V27.4162V27.3533V27.2904V27.2274V27.1645V27.1016V27.0387V26.9758V26.9128V26.8499V26.7869V26.724V26.6611V26.5981V26.5352V26.4723V26.4093V26.3465V26.2838V26.2209V26.158V26.095V26.0321V25.9692V25.9063V25.8434V25.7804V25.7174V25.6545V25.5916V25.5287V25.472V25.4091V25.3462V25.2832V25.2203V25.1573V25.0944V25.0315V24.9686V24.9056V24.8427V24.7798V24.7168V24.6539V24.591V24.528V24.4651V24.4022V24.3392H21.1294H21.1918H21.2545H21.3168H21.3793H21.4417H21.5044H21.5668H21.6292H21.6916H21.7543H21.8168H21.8791H21.9415H21.9979H22.0604H22.1228H22.1852H22.2479H22.3103H22.3727H22.4351H22.4978H22.5602H22.6226H22.685H22.7478H22.8102H22.8725H22.9349H22.9977H23.0601H23.1224H23.1848H23.2472H23.31H23.3724H23.4348H23.4972H23.5599H23.6223H23.6847H23.7471H23.8036H23.866H23.9284H23.9908H24.0535H24.1159H24.1783H24.2406H24.3034H24.3658H24.4282H24.4906H24.5533H24.6158H24.6781V24.4022V24.4588V24.5217V24.5847V24.6476V24.7042V24.7672V24.8302V24.8867V24.9497V25.0126V25.0693V25.1322V25.1951V25.2581V25.3147V25.3777H24.6158H24.5533H24.4906H24.4282H24.3658H24.3034H24.2469H24.1846H24.1222H24.0597H23.997H23.9347H23.8722H23.8098H23.7471H23.6847H23.6223H23.5599H23.4972H23.4411H23.3786H23.3163H23.2535H23.1912H23.1287H23.0664H23.0036H22.9412H22.8788H22.8165H22.7537H22.6912H22.6352H22.5728H22.5101H22.4476H22.3853H22.3228H22.2601V25.4406V25.5035V25.5664V25.6293V25.6923V25.7489V25.8118V25.8748V25.9377V26.0007V26.0636V26.1265H22.3228H22.3853H22.4476H22.5101H22.5728H22.6352H22.6975H22.76H22.8165H22.8788H22.9412H23.0036H23.0664H23.1287H23.1912H23.2535H23.3163H23.3786H23.4411H23.5035H23.5662H23.6285H23.691H23.7534H23.8161H23.8785H23.9347H23.997H24.0597H24.1222H24.1846H24.2469H24.3097H24.3721H24.4345V26.1894V26.2461V26.3087V26.3716V26.4282V26.4911V26.5541V26.6107V26.6737V26.7366V26.7996V26.8561V26.919V26.982V27.0387V27.1016H24.3721H24.3097H24.2469H24.1846H24.1222H24.0597H23.997H23.9347H23.8785H23.8161H23.7534H23.691H23.6285H23.5662H23.5035H23.4411H23.3786H23.3163H23.2535H23.1912H23.1287H23.0664H23.0036H22.9412H22.8788H22.8165H22.76H22.6975H22.6352H22.5728H22.5101H22.4476H22.3853H22.3228H22.2601V27.1645V27.2338V27.2967V27.3597V27.4289V27.4918V27.5547V27.6239V27.6868V27.7498V27.819V27.8819H22.3228H22.3853H22.4476H22.5101H22.5728H22.6352H22.6975H22.76H22.8227H22.8914H22.9537H23.0161H23.0789H23.1413H23.2037H23.2661H23.3288H23.3912H23.4536H23.516H23.5784H23.6411H23.7035H23.766H23.8283H23.8911H23.9535H24.0159H24.0782H24.1472H24.2097H24.272H24.3344H24.3972H24.4596H24.522H24.5843H24.6471H24.7095V27.9449V28.0015V28.0645V28.1274V28.1903V28.247V28.3099V28.3728V28.4295V28.4924V28.5553V28.612V28.6746V28.7375V28.8003V28.8571V28.92H24.6471ZM20.082 28.92H20.0197H19.9572H19.8883H19.8259H19.7635H19.7011H19.6383H19.5759H19.5073H19.4449H19.3824H19.3197H19.2574H19.195H19.1263H19.0635H19.0011H18.9387V28.8571V28.7941V28.7312V28.6682V28.6049V28.542V28.4791V28.4161V28.3532V28.2903V28.2273V28.1641V28.1011V28.0382V27.9753V27.9123V27.849V27.786V27.7231V27.6602V27.5973V27.5344V27.4711V27.4082V27.3452V27.2822V27.2193V27.1564V27.0931V27.0301V26.9672V26.9043V26.8414V26.7784V26.7151V26.6522V26.5893V26.5264V26.4634V26.4001V26.3372V26.2742V26.2113L18.9074 26.2616L18.8701 26.3187L18.8387 26.369L18.8014 26.4194L18.7701 26.476L18.7323 26.5264L18.7014 26.5767L18.67 26.6337L18.6327 26.684L18.6013 26.7344L18.5637 26.7848L18.5327 26.8418L18.495 26.8921L18.464 26.9424L18.4326 26.9991L18.3949 27.0497L18.3639 27.1001L18.3263 27.1567L18.2953 27.2071L18.2577 27.2575L18.2267 27.3144L18.1952 27.3648L18.1576 27.4152L18.1266 27.4718L18.089 27.5225L18.058 27.5728L18.0203 27.6232L17.9889 27.6798L17.9579 27.7305L17.9203 27.7809L17.8893 27.8375L17.8516 27.8879L17.8202 27.9382L17.7829 27.9953L17.7516 28.0456H17.7268L17.6892 27.989L17.6578 27.9382L17.6205 27.8816L17.5891 27.8312L17.5518 27.7747L17.5204 27.7239L17.4832 27.6673L17.4518 27.6169L17.4141 27.5603L17.3831 27.5099L17.3454 27.4529L17.3145 27.4025L17.2768 27.3459L17.2454 27.2956L17.2081 27.2386L17.1767 27.1882L17.1395 27.1316L17.1018 27.0813L17.0705 27.0243L17.0331 26.9739L17.0018 26.9173L16.9645 26.867L16.9331 26.8099L16.8958 26.7596L16.8644 26.7029L16.8268 26.6526L16.7958 26.5959L16.7581 26.5452L16.7271 26.4886L16.6894 26.4382L16.6581 26.3816L16.6208 26.3313L16.5893 26.2742L16.5521 26.2239V26.2868V26.3498V26.4127V26.476V26.5389V26.6018V26.6648V26.7278V26.791V26.854V26.9106V26.9735V27.0365V27.0994V27.1627V27.2257V27.2885V27.3514V27.4144V27.4774V27.5406V27.6036V27.6666V27.7294V27.7924V27.8553V27.9186V27.9815V28.0445V28.1074V28.1703V28.2336V28.2903V28.3532V28.4161V28.4791V28.542V28.6049V28.6682V28.7312V28.7941V28.8571V28.92H16.4897H16.427H16.3646H16.3022H16.2398H16.1771H16.1147H16.0523H15.9899H15.9271H15.8648H15.8023H15.74H15.6772H15.6149H15.5524H15.49H15.4273H15.3649V28.8571V28.7941V28.7312V28.6686V28.6056V28.5427V28.4798V28.4169V28.354V28.291V28.2281V28.1651V28.1022V28.0393V27.9763V27.9134V27.8505V27.7876V27.7309V27.668V27.6051V27.5422V27.4792V27.4162V27.3533V27.2904V27.2274V27.1645V27.1016V27.0387V26.9758V26.9128V26.8499V26.7869V26.724V26.6611V26.5981V26.5352V26.4723V26.4093V26.3465V26.2838V26.2209V26.158V26.095V26.0321V25.9692V25.9063V25.8434V25.7804V25.7174V25.6545V25.5916V25.5287V25.472V25.4091V25.3462V25.2832V25.2203V25.1573V25.0944V25.0315V24.9686V24.9056V24.8427V24.7798V24.7168V24.6539V24.591V24.528V24.4651V24.4022V24.3392H15.4273H15.49H15.5462H15.6085H15.6709H15.7337H15.7898H15.8522H15.915H15.9773H16.0335H16.0958H16.1586H16.221H16.2771H16.3394H16.4022H16.4647H16.5207H16.5831H16.6459L16.6769 24.3896L16.7083 24.4462L16.7455 24.4962L16.7769 24.5528L16.8083 24.6031L16.8393 24.6599L16.8707 24.7098L16.9081 24.7665L16.9393 24.8168L16.9708 24.8672L17.0018 24.9234L17.0331 24.9738L17.0705 25.0304L17.1018 25.0808L17.1332 25.137L17.1642 25.1873L17.2019 25.2376L17.2333 25.294L17.2642 25.3443L17.2956 25.4009L17.3267 25.4513L17.3643 25.5075L17.3957 25.5579L17.4266 25.6145L17.4581 25.6645L17.4891 25.7148L17.5267 25.7715L17.5581 25.8219L17.5891 25.8785L17.6205 25.9285L17.6515 25.9852L17.6892 26.0355L17.7206 26.0917L17.7516 26.1421L17.7829 26.0917L17.8143 26.0355L17.8516 25.9852L17.8829 25.9285L17.914 25.8785L17.9453 25.8219L17.9826 25.7715L18.014 25.7148L18.0454 25.6645L18.0764 25.6145L18.114 25.5579L18.145 25.5075L18.1765 25.4513L18.2078 25.4009L18.2451 25.3443L18.2764 25.294L18.3079 25.2376L18.3388 25.1873L18.3703 25.137L18.4075 25.0808L18.4389 25.0304L18.4703 24.9738L18.5013 24.9234L18.5389 24.8672L18.57 24.8168L18.6013 24.7665L18.6327 24.7098L18.67 24.6599L18.7014 24.6031L18.7323 24.5528L18.7638 24.4962L18.8014 24.4462L18.8324 24.3896L18.8638 24.3392H18.9262H18.9886H19.045H19.1075H19.1699H19.2322H19.2887H19.3512H19.4135H19.4759H19.5324H19.5948H19.6571H19.7196H19.776H19.8384H19.9008H19.9632H20.0197H20.082H20.1444V24.4022V24.4651V24.528V24.591V24.6539V24.7168V24.7798V24.8427V24.9056V24.9686V25.0315V25.0944V25.1573V25.2203V25.2832V25.3462V25.4091V25.472V25.5287V25.5916V25.6545V25.7174V25.7804V25.8434V25.9063V25.9692V26.0321V26.095V26.158V26.2209V26.2838V26.3465V26.4093V26.4723V26.5352V26.5981V26.6611V26.724V26.7869V26.8499V26.9128V26.9758V27.0387V27.1016V27.1645V27.2274V27.2904V27.3533V27.4162V27.4792V27.5422V27.6051V27.668V27.7309V27.7876V27.8505V27.9134V27.9763V28.0393V28.1022V28.1651V28.2281V28.291V28.354V28.4169V28.4798V28.5427V28.6056V28.6686V28.7312V28.7941V28.8571V28.92H20.082ZM12.8328 27.0324L12.814 26.9754L12.7893 26.9124L12.7642 26.8558L12.7453 26.7988L12.7206 26.7421L12.6956 26.6792L12.6767 26.6222L12.6515 26.5655L12.6269 26.509L12.608 26.452L12.5829 26.389L12.5644 26.3323L12.5393 26.2753L12.5142 26.2187L12.4954 26.162L12.4706 26.0988L12.4456 26.0421L12.4268 25.9855L12.4016 25.9285L12.3769 25.8655L12.3581 25.8085L12.333 25.7519L12.3082 25.8085L12.2895 25.8655L12.2644 25.9285L12.2392 25.9855L12.2207 26.0421L12.1957 26.0988L12.1706 26.162L12.1458 26.2187L12.1269 26.2753L12.1019 26.3323L12.0767 26.389L12.0583 26.452L12.0332 26.509L12.0081 26.5655L11.9893 26.6222L11.9645 26.6792L11.9394 26.7421L11.9143 26.7988L11.8959 26.8558L11.8708 26.9124L11.8457 26.9754L11.8268 27.0324L11.8021 27.0891H11.8645H11.9269H11.9893H12.052H12.1144H12.1768H12.2392H12.302H12.3581H12.4205H12.4832H12.5456H12.608H12.6704H12.7328H12.7955H12.8579L12.8328 27.0324ZM14.7949 28.92H14.7322H14.676H14.6137H14.5509H14.4886H14.4261H14.37H14.3073H14.2449H14.1825H14.1201H14.0574H14.0012H13.9388H13.8764H13.8137H13.7513H13.6952H13.6328H13.5701L13.5453 28.8633L13.5265 28.8067L13.5014 28.75L13.4763 28.6871L13.4578 28.6308L13.4327 28.5742L13.4076 28.5176L13.3891 28.461L13.3641 28.4043L13.3389 28.3477L13.3202 28.291L13.2954 28.2281L13.2703 28.1715L13.2514 28.1148L13.2263 28.0582H13.1639H13.1016H13.0392H12.9768H12.9203H12.8579H12.7955H12.7328H12.6704H12.608H12.5456H12.4832H12.4205H12.3581H12.302H12.2392H12.1768H12.1144H12.052H11.9893H11.9269H11.8645H11.8021H11.7398H11.6832H11.6209H11.5585H11.4957H11.4333L11.4086 28.1148L11.3898 28.1715L11.3646 28.2281L11.3396 28.291L11.3211 28.3477L11.296 28.4043L11.2709 28.461L11.2521 28.5176L11.2274 28.5742L11.2022 28.6308L11.1834 28.6871L11.1586 28.75L11.1336 28.8067L11.1147 28.8633L11.0896 28.92H11.0272H10.9649H10.9025H10.8397H10.7773H10.7087H10.6463H10.5838H10.5211H10.4588H10.3964H10.3339H10.2712H10.2089H10.1465H10.0778H10.015H9.95265H9.89021H9.82784L9.85255 28.8633L9.87768 28.8067L9.90274 28.75L9.92752 28.6871L9.94635 28.6308L9.97148 28.5742L9.99654 28.5176L10.0212 28.461L10.0464 28.4043L10.0715 28.3413L10.0962 28.2847L10.1214 28.2281L10.1401 28.1715L10.1652 28.1148L10.19 28.0582L10.2151 27.9953L10.2401 27.9386L10.2649 27.8819L10.2901 27.8253L10.3151 27.7687L10.3339 27.712L10.3587 27.6491L10.3838 27.5925L10.4089 27.5358L10.4336 27.4792L10.4588 27.4226L10.4839 27.3659L10.5086 27.3029L10.5274 27.2464L10.5526 27.1897L10.5776 27.1331L10.6024 27.0764L10.6275 27.0198L10.6525 26.9569L10.6773 26.9002L10.7024 26.8436L10.7212 26.7869L10.7463 26.7304L10.771 26.6737L10.7962 26.6107L10.8213 26.5541L10.846 26.4974L10.8711 26.4408L10.8962 26.3842L10.915 26.3275L10.9398 26.2713L10.9649 26.2083L10.9899 26.1517L11.0147 26.095L11.0398 26.0384L11.0649 25.9818L11.0896 25.9251L11.1084 25.8622L11.1336 25.8056L11.1586 25.7489L11.1834 25.6923L11.2085 25.6357L11.2336 25.579L11.2584 25.516L11.2834 25.4595L11.3023 25.4028L11.3273 25.3462L11.3521 25.2895L11.3772 25.2329L11.4023 25.17L11.427 25.1133L11.4521 25.0567L11.4773 25L11.4957 24.9435L11.5208 24.8867L11.5459 24.8238L11.5711 24.7672L11.5958 24.7105L11.6209 24.6539L11.646 24.5973L11.6707 24.5407L11.6896 24.4777L11.7146 24.4211L11.7398 24.3644L11.7645 24.3078H11.8268H11.8833H11.9457H12.0081H12.0709H12.1269H12.1893H12.2518H12.3145H12.3707H12.433H12.4954H12.5581H12.6143H12.6767H12.739H12.8018H12.8579H12.9203L12.9454 24.3644L12.9705 24.4211L12.9953 24.4777L13.0204 24.5407L13.0392 24.5973L13.0639 24.6539L13.089 24.7105L13.1141 24.7672L13.1392 24.8238L13.1639 24.8867L13.1891 24.9435L13.2142 25L13.2326 25.0567L13.2577 25.1133L13.2829 25.17L13.308 25.2329L13.3327 25.2895L13.3578 25.3462L13.3829 25.4028L13.4076 25.4595L13.4264 25.516L13.4515 25.579L13.4763 25.6357L13.5014 25.6923L13.5265 25.7489L13.5516 25.8056L13.5763 25.8622L13.6014 25.9251L13.6203 25.9818L13.645 26.0384L13.67 26.095L13.6952 26.1517L13.7203 26.2083L13.745 26.2713L13.7701 26.3275L13.7952 26.3842L13.8137 26.4408L13.8387 26.4974L13.8639 26.5541L13.8886 26.6107L13.9137 26.6737L13.9388 26.7304L13.964 26.7869L13.9887 26.8436L14.0075 26.9002L14.0326 26.9569L14.0574 27.0198L14.0824 27.0764L14.1075 27.1331L14.1326 27.1897L14.1574 27.2464L14.1825 27.3029L14.2013 27.3659L14.2261 27.4226L14.2511 27.4792L14.2762 27.5358L14.301 27.5925L14.3261 27.6491L14.3512 27.712L14.3763 27.7687L14.3948 27.8253L14.4199 27.8819L14.445 27.9386L14.4697 27.9953L14.4948 28.0582L14.5199 28.1148L14.545 28.1715L14.5697 28.2281L14.5886 28.2847L14.6137 28.3413L14.6384 28.4043L14.6635 28.461L14.6885 28.5176L14.7133 28.5742L14.7384 28.6308L14.7635 28.6871L14.7824 28.75L14.8071 28.8067L14.8322 28.8633L14.8572 28.92H14.7949ZM9.32138 28.335L9.27119 28.3728L9.22758 28.4043L9.17739 28.4421L9.12755 28.4735L9.07771 28.5113L9.02752 28.5427L8.97768 28.5742L8.92119 28.6056L8.86505 28.6371L8.80891 28.6686L8.75249 28.6934L8.69635 28.7249L8.63398 28.75L8.57791 28.7752L8.51511 28.8003L8.45904 28.8255L8.40283 28.8444L8.34641 28.8633L8.29027 28.8823L8.2279 28.9011L8.17183 28.92L8.10904 28.9326L8.0529 28.9452L7.99053 28.9577L7.92781 28.9703L7.86537 28.9766L7.7967 28.9829L7.73433 28.9892L7.66566 28.9955L7.60287 29.0018L7.53427 29.0081H7.4656H7.39685H7.32825H7.26546L7.20309 29.0018L7.13442 28.9955L7.07205 28.9892L7.00968 28.9829L6.94689 28.9766L6.88452 28.964L6.82208 28.9514L6.76601 28.9388L6.70329 28.9263L6.64715 28.9074L6.58478 28.8948L6.52829 28.8759L6.47214 28.8507L6.416 28.8319L6.3537 28.8067L6.29721 28.7815L6.24107 28.7564L6.185 28.7312L6.12844 28.6998L6.07867 28.6686L6.02253 28.6371L5.97234 28.6056L5.9225 28.5742L5.87231 28.5364L5.82247 28.4987L5.77256 28.461L5.72867 28.4232L5.68513 28.3854L5.64117 28.3413L5.59762 28.3036L5.55367 28.2596L5.51012 28.2155L5.47246 28.1715L5.43515 28.1211L5.39749 28.0771L5.36613 28.0267L5.32882 27.9763L5.29753 27.9261L5.26645 27.8757L5.23509 27.819L5.20373 27.7687L5.17902 27.712L5.15389 27.6554L5.12883 27.5987L5.10405 27.5422L5.08522 27.4918L5.06009 27.4351L5.04756 27.3785L5.02908 27.3219L5.01655 27.259L4.99772 27.2023L4.98519 27.1394L4.97889 27.0827L4.96629 27.0198L4.96013 26.9632L4.95376 26.9002L4.94788 26.8373L4.94165 26.7744V26.7052V26.6422V26.6296V26.5667L4.94788 26.4974V26.4345L4.95376 26.3716L4.96013 26.3024L4.97266 26.2398L4.97889 26.1769L4.99142 26.1202L5.01025 26.0573L5.02285 25.9944L5.04126 25.9377L5.06009 25.8748L5.07892 25.8182L5.10405 25.7552L5.12883 25.6986L5.15389 25.642L5.17902 25.5853L5.20373 25.5287L5.23509 25.472L5.26645 25.4217L5.29753 25.3713L5.32882 25.321L5.36025 25.2706L5.39749 25.2203L5.43515 25.17L5.47246 25.1196L5.51012 25.0755L5.55367 25.0315L5.59133 24.9874L5.63494 24.9435L5.67883 24.8993L5.72237 24.8616L5.77256 24.8175L5.81617 24.7798L5.86601 24.742L5.9162 24.7105L5.96604 24.6728L6.0163 24.6413L6.06607 24.6099L6.12221 24.5784L6.1787 24.5469L6.23477 24.5155L6.29091 24.4903L6.34733 24.4651L6.40977 24.4336L6.45962 24.4148L6.52199 24.3959L6.57854 24.3707L6.63462 24.3581L6.69069 24.3392L6.75341 24.3266L6.80955 24.3078L6.87192 24.2952L6.93436 24.2889L6.99708 24.2763L7.05952 24.27L7.12182 24.2638L7.18426 24.2574L7.24705 24.2511H7.31572H7.37809H7.44669H7.51537L7.58446 24.2574L7.65313 24.2638H7.7155L7.77787 24.27L7.84654 24.2826L7.90303 24.2889L7.9654 24.3015L8.02784 24.3141L8.08426 24.3266L8.14033 24.3392L8.19654 24.3518L8.25303 24.3707L8.3091 24.3833L8.35894 24.4022L8.41543 24.4211L8.47157 24.4462L8.52765 24.4714L8.58413 24.4966L8.64028 24.528L8.69635 24.5532L8.74661 24.5847L8.80268 24.6161L8.85252 24.6476L8.90901 24.6791L8.95885 24.7168L9.00869 24.7483L9.05888 24.7861L9.10872 24.8238L9.15891 24.8679L9.20875 24.9056L9.17109 24.956L9.12755 25L9.08989 25.0504L9.04635 25.1007L9.00869 25.1511L8.97138 25.1951L8.92742 25.2454L8.89018 25.2958L8.85252 25.3399L8.80891 25.3902L8.77132 25.4406L8.72771 25.4909L8.69005 25.535L8.65281 25.5853L8.60892 25.6357L8.57153 25.686L8.52765 25.7301L8.49033 25.7804L8.44014 25.7426L8.3903 25.6986L8.34011 25.6671L8.29027 25.6293L8.24043 25.5979L8.19024 25.5664L8.14033 25.535L8.08426 25.5035L8.03407 25.4783L7.98423 25.4531L7.93404 25.4343L7.8779 25.4154L7.82183 25.3965L7.76534 25.3839L7.70297 25.3713L7.6406 25.3587L7.57815 25.3525L7.50948 25.3462L7.44046 25.3399H7.37179H7.30942L7.24705 25.3462L7.19056 25.3525L7.12819 25.365L7.07205 25.3777L7.01556 25.3965L6.95949 25.4154L6.90335 25.4406L6.84721 25.4657L6.79702 25.4972L6.74725 25.5287L6.69699 25.5602L6.65345 25.5979L6.60949 25.6357L6.56595 25.6734L6.52829 25.7174L6.48474 25.7615L6.44708 25.8118L6.416 25.8559L6.38464 25.9063L6.3537 25.9629L6.32227 26.0132L6.29721 26.0699L6.27838 26.1265L6.2536 26.1832L6.23477 26.2461L6.22224 26.3087L6.20971 26.3653L6.19711 26.4345L6.19088 26.4974L6.185 26.5603V26.6296V26.6422V26.7052L6.19088 26.768L6.19711 26.8247L6.20341 26.8877L6.21594 26.9442L6.22854 27.001L6.24107 27.0575L6.2599 27.1142L6.27838 27.1645L6.30351 27.2274L6.32857 27.2841L6.35958 27.3408L6.39094 27.3911L6.4223 27.4414L6.45962 27.4918L6.49728 27.5358L6.54081 27.5799L6.57854 27.6239L6.62202 27.6617L6.67228 27.6995L6.72212 27.7372L6.77189 27.7687L6.82208 27.8001L6.87829 27.8253L6.93436 27.8505L6.99078 27.8757L7.05322 27.8945L7.11559 27.9134L7.17838 27.9261L7.24075 27.9386L7.30312 27.9449L7.37179 27.9512H7.44046H7.51537L7.58446 27.9449L7.65313 27.9386L7.7155 27.9323L7.77787 27.9197L7.84066 27.9071L7.90303 27.8883L7.9591 27.8757L8.01531 27.8505L8.0655 27.8253L8.12157 27.8001L8.16546 27.775L8.21537 27.7435V27.6806V27.6177V27.5547V27.4918V27.4226V27.3597V27.2967V27.2338V27.1708H8.15293H8.09651H8.03407H7.9717H7.90933H7.85284H7.7904H7.72803H7.66566H7.60923H7.54679H7.48442H7.42198H7.36556H7.30312V27.1079V27.0513V26.9883V26.9254V26.8625V26.8058V26.7429V26.68V26.6171V26.5603V26.4974V26.4345V26.3716V26.3149V26.2524H7.36556H7.42828H7.49072H7.55303H7.61547H7.67784H7.74063H7.803H7.86537H7.92781H7.99053H8.0529H8.11527H8.17764H8.24043H8.30287H8.36524H8.42761H8.49033H8.55277H8.61515H8.67752H8.74024H8.80268H8.86505H8.92742H8.99021H9.05258H9.11502H9.17739H9.24011H9.30248H9.36492V26.3149V26.3778V26.4408V26.4974V26.5603V26.6233V26.6862V26.7492V26.8121V26.8687V26.9317V26.9946V27.0575V27.1205V27.1834V27.2464V27.3029V27.3659V27.4289V27.4918V27.5547V27.6177V27.6806V27.7372V27.8001V27.8631V27.9261V27.989V28.0519V28.1086V28.1715V28.2344V28.2973L9.32138 28.335Z" fill="black"/>
<path d="M7.31203 13.9747H10.0199V11.8743H7.31203V7.58637H10.1277V5.48598H5.01257V20.6448H10.1705V18.5443H7.31203V13.9747Z" fill="black"/>
<path d="M26.7074 14.4297V17.8513C26.7074 18.4577 26.4279 18.7391 25.848 18.7391H25.4179C24.8162 18.7391 24.5367 18.4577 24.5367 17.8513V8.27929C24.5367 7.67295 24.8162 7.3916 25.4179 7.3916H25.8048C26.3851 7.3916 26.6646 7.67295 26.6646 8.27929V11.2464H28.9209V8.14936C28.9209 6.26552 28.0183 5.35593 26.1489 5.35593H25.0311C23.1616 5.35593 22.2372 6.287 22.2372 8.17119V17.9594C22.2372 19.8437 23.1616 20.7747 25.0311 20.7747H26.1702C28.0401 20.7747 28.964 19.8437 28.964 17.9594V14.4297H26.7074Z" fill="black"/>
<path d="M18.722 20.6448H21.0218V5.48591H18.722V20.6448Z" fill="black"/>
<path d="M15.3852 12.2208C15.3852 12.8272 15.1061 13.1089 14.5258 13.1089H13.58V7.52158H14.5258C15.1061 7.52158 15.3852 7.803 15.3852 8.40928V12.2208ZM14.8909 5.48591H11.2805V20.6448H13.58V15.1441H14.8909C16.7607 15.1441 17.6847 14.2131 17.6847 12.3293V8.30118C17.6847 6.41699 16.7607 5.48591 14.8909 5.48591Z" fill="black"/>
<path fill-rule="evenodd" clip-rule="evenodd" d="M10.4374 34.3513H23.6013L16.8822 36.5732L10.4374 34.3513Z" fill="black"/>
</svg>
