<svg width="75" height="20" viewBox="0 0 75 20" fill="none" xmlns="http://www.w3.org/2000/svg">
<path d="M5.83026 15.8675C4.67949 15.8675 3.66534 15.6341 2.78683 15.1674C1.90833 14.7007 1.22423 14.0417 0.734536 13.1895C0.244845 12.3378 0 11.3413 0 10.2004V9.93382C0 8.7783 0.240928 7.77835 0.722784 6.93348C1.20464 6.0891 1.8809 5.43356 2.75157 4.96685C3.62224 4.50014 4.62464 4.26678 5.75975 4.26678C6.89485 4.26678 7.85856 4.50014 8.69789 4.96685C9.53722 5.43356 10.1905 6.0891 10.6567 6.93348C11.1228 7.77786 11.3564 8.76362 11.3564 9.8893V10.8002H2.70456C2.73541 11.6598 3.0542 12.3486 3.66093 12.8671C4.26717 13.3857 5.01346 13.645 5.8998 13.645C6.78614 13.645 7.41539 13.4635 7.83555 13.1005C8.25521 12.7375 8.574 12.3266 8.79191 11.8672L11.0073 12.9562C10.7894 13.3563 10.4745 13.7825 10.0627 14.234C9.65034 14.686 9.10238 15.071 8.41877 15.3895C7.73467 15.708 6.87183 15.8675 5.83026 15.8675ZM2.72856 8.86685H8.62884C8.56665 8.14135 8.2748 7.5631 7.75426 7.13357C7.23323 6.70404 6.56088 6.48928 5.73722 6.48928C4.91356 6.48928 4.19812 6.70404 3.68492 7.13357C3.17173 7.56359 2.85294 8.14135 2.72856 8.86685Z" fill="white"/>
<path d="M37.5629 6.84457C37.0811 6.00019 36.4396 5.35932 35.6385 4.92196C34.8378 4.4851 34.166 4.26593 33.2336 4.26593C32.1445 4.26593 31.3091 4.444 30.7259 4.79966C30.1431 5.15483 29.7196 5.56234 29.4551 6.02171H28.8641V4.57707H26.2286L24.4764 4.57756H24.4769L21.3752 4.57707L18.5531 8.37727H17.964L15.1424 4.57707H12.0172L16.2379 10.022L11.9467 15.555H15.1184L17.9635 11.6878H18.5526L21.3978 15.555H24.546L20.2548 10.022L22.976 6.51092C23.8198 6.5212 26.6056 6.51092 26.6056 6.51092V20H28.8626V14.1774H29.4537C29.6246 14.4445 29.9086 14.7106 30.2117 14.9772C30.5148 15.2443 30.9115 15.4586 31.4012 15.6215C31.8909 15.7844 32.501 15.8661 33.2321 15.8661C34.1802 15.8661 34.8559 15.6475 35.6482 15.2101C36.4411 14.7737 37.0791 14.1324 37.561 13.2875C38.0423 12.4431 38.2838 11.4285 38.2838 10.2426V9.88747C38.2838 8.70211 38.0423 7.68748 37.561 6.84261L37.5629 6.84457ZM35.6042 10.1785C35.6042 11.2895 35.2888 12.1447 34.6596 12.7454C34.0298 13.3452 33.2253 13.6451 32.2454 13.6451C31.2655 13.6451 30.4771 13.3452 29.8322 12.7454C29.1863 12.1447 28.8646 11.2895 28.8646 10.1785V9.95596C28.8646 8.83028 29.1863 7.97024 29.8322 7.37781C30.4771 6.78586 31.2817 6.48891 32.2454 6.48891C33.2091 6.48891 34.0102 6.78586 34.6473 7.37781C35.2854 7.97073 35.6042 8.83028 35.6042 9.95596V10.1785Z" fill="white"/>
<path d="M40.3455 15.5565V0H43.0275V15.5565H40.3455Z" fill="white"/>
<path d="M51.1049 15.8675C49.9541 15.8675 48.9243 15.6415 48.0149 15.1894C47.1056 14.7379 46.3901 14.0931 45.8696 13.2561C45.3486 12.419 45.0885 11.4152 45.0885 10.245V9.8893C45.0885 8.7191 45.3486 7.71133 45.8696 6.86695C46.3901 6.02257 47.1056 5.37779 48.0149 4.93358C48.9243 4.48889 49.9541 4.26678 51.1049 4.26678C52.2556 4.26678 53.2816 4.48889 54.1831 4.93358C55.0846 5.37827 55.7956 6.02257 56.3167 6.86695C56.8372 7.71133 57.0977 8.7191 57.0977 9.8893V10.245C57.0977 11.4156 56.8372 12.4195 56.3167 13.2561C55.7956 14.0931 55.0841 14.7379 54.1831 15.1894C53.2811 15.641 52.2552 15.8675 51.1049 15.8675ZM51.1049 13.6005C52.0843 13.6005 52.8849 13.3006 53.5068 12.7003C54.1282 12.1001 54.4397 11.2596 54.4397 10.1779V9.95583C54.4397 8.87467 54.1287 8.03323 53.5068 7.43346C52.8849 6.83319 52.0843 6.53331 51.1049 6.53331C50.1255 6.53331 49.3244 6.83319 48.7029 7.43346C48.081 8.03323 47.7701 8.87467 47.7701 9.95583V10.1779C47.7701 11.2596 48.081 12.1001 48.7029 12.7003C49.3244 13.3001 50.1255 13.6005 51.1049 13.6005Z" fill="white"/>
<path d="M59.9598 15.5565L58.1642 4.57806H60.8227L62.0587 13.8452H62.4553L64.2045 4.57806H68.4957L70.2448 13.8452H70.6415L71.8775 4.57806H74.536L72.7403 15.5565H68.2861L66.5604 6.28933H66.1637L64.4146 15.5565H59.9603H59.9598Z" fill="white"/>
</svg>
