<svg width="280" height="74" viewBox="0 0 280 74" fill="none" xmlns="http://www.w3.org/2000/svg">
<path d="M0 37.3044V6.08301H12.016C14.6148 6.08301 16.9062 6.49819 18.8902 7.32854C20.8742 8.1589 22.523 9.26604 23.8643 10.6777C25.2056 12.0893 26.2116 13.7223 26.8822 15.6321C27.5529 17.5143 27.9162 19.5348 27.9162 21.6937C27.9162 24.0741 27.5249 26.2053 26.7705 28.1428C26.016 30.0527 24.9541 31.7134 23.5569 33.0696C22.1597 34.4259 20.483 35.4777 18.5269 36.225C16.5709 36.9723 14.3912 37.3598 11.988 37.3598H0V37.3044ZM19.6727 21.6384C19.6727 20.3652 19.505 19.2027 19.1697 18.1785C18.8343 17.1268 18.3313 16.241 17.6886 15.4937C17.0459 14.7464 16.2635 14.1652 15.3413 13.75C14.4192 13.3348 13.3573 13.1134 12.2116 13.1134H8.10379V30.2464H12.1836C13.3573 30.2464 14.4192 30.025 15.3693 29.6098C16.2914 29.1669 17.1018 28.5857 17.7166 27.8107C18.3593 27.0357 18.8343 26.1223 19.1697 25.0705C19.505 24.0187 19.6727 22.8839 19.6727 21.6384Z" fill="white"/>
<path d="M0 68.0553V40.7643H10.507C12.7705 40.7643 14.7824 41.1241 16.515 41.8437C18.2475 42.5634 19.7006 43.5321 20.8743 44.7777C22.0479 45.9955 22.9142 47.4625 23.501 49.0955C24.0878 50.7562 24.3952 52.5 24.3952 54.3821C24.3952 56.458 24.0599 58.3402 23.4172 60.0009C22.7465 61.6893 21.8244 63.1009 20.5948 64.3187C19.3653 65.5089 17.9122 66.4223 16.2076 67.0866C14.503 67.7509 12.6028 68.0553 10.507 68.0553H0ZM17.1856 54.3545C17.1856 53.2473 17.0459 52.2509 16.7385 51.3098C16.4311 50.3964 16.012 49.6214 15.4531 48.9571C14.8942 48.3205 14.1956 47.7946 13.3852 47.4348C12.5749 47.075 11.6527 46.8812 10.6467 46.8812H7.0978V61.8554H10.6747C11.7086 61.8554 12.6307 61.6616 13.4411 61.3018C14.2515 60.9143 14.9501 60.3884 15.509 59.7241C16.0679 59.0598 16.487 58.2571 16.7665 57.3437C17.0459 56.4304 17.1856 55.4339 17.1856 54.3545Z" fill="white"/>
<path d="M87.7725 37.3044V6.08301H99.9002C102.387 6.08301 104.679 6.49819 106.663 7.32854C108.647 8.1589 110.295 9.26604 111.637 10.6777C112.978 12.0893 113.984 13.7223 114.655 15.6321C115.325 17.5143 115.689 19.5348 115.689 21.6937C115.689 24.0741 115.297 26.2053 114.543 28.1428C113.788 30.0527 112.727 31.7134 111.329 33.0696C109.932 34.4259 108.255 35.4777 106.299 36.225C104.343 36.9723 102.164 37.3598 99.7605 37.3598H87.7725V37.3044ZM107.445 21.6384C107.445 20.3652 107.277 19.2027 106.942 18.1785C106.607 17.1268 106.104 16.241 105.461 15.4937C104.818 14.7464 104.036 14.1652 103.114 13.75C102.192 13.3348 101.13 13.1134 99.984 13.1134H95.9042V30.2464H99.984C101.158 30.2464 102.22 30.025 103.17 29.6098C104.092 29.1669 104.902 28.5857 105.517 27.8107C106.16 27.0357 106.635 26.1223 106.97 25.0705C107.277 24.0187 107.445 22.8839 107.445 21.6384Z" fill="white"/>
<path d="M53.2336 30.2741L50.4391 37.3321H30.7944V6.08301H53.2894V13.141H38.7865V17.9571H51.9761V24.9044H38.7865V30.2741H53.2336Z" fill="white"/>
<path d="M66.1715 6.08301H74.5827L86.5987 37.3044H78.2434L75.9799 31.2705H64.5228L62.3152 37.3044H54.2114L66.1715 6.08301ZM73.5208 24.5446L70.2793 15.7982L67.0378 24.5446H73.5208Z" fill="white"/>
<path d="M33.9242 40.7643H41.2735L51.7805 68.0553H44.4592L42.4751 62.7964H32.4711L30.543 68.0553H23.4731L33.9242 40.7643ZM40.3514 56.9009L37.529 49.2616L34.7067 56.9009H40.3514Z" fill="white"/>
<path d="M162.048 6.13831L168.643 18.3169L175.266 6.13831H184.012L172.555 26.2883V37.3321H164.311V26.2053L153.134 6.16598H162.048V6.13831Z" fill="white"/>
<path d="M75.1694 68.0553V40.7643H82.407V61.883H94.1435L91.6844 68.0553H75.1694Z" fill="white"/>
<path d="M96.5469 68.0553V40.7643H103.784V68.0553H96.5469Z" fill="white"/>
<path d="M158.08 40.7643V68.0553H150.842V57.2607H140.196V68.0553H132.958V40.7643H140.196V51.1161H150.842V40.7643H158.08Z" fill="white"/>
<path d="M181.441 46.8812H175.377V68.0553H168.14V46.8812H160.567V40.7643H183.928L181.441 46.8812Z" fill="white"/>
<path d="M54.2116 40.7366L59.996 51.4205L65.7804 40.7366H73.4371L63.4052 58.3955V68.0553H56.1956V58.3125L46.3872 40.7366H54.2116Z" fill="white"/>
<path d="M152.659 24.0464C151.597 22.7455 150.172 21.8321 148.355 21.3062C149.864 20.6419 151.01 19.6178 151.764 18.2893C152.519 16.9607 152.91 15.5491 152.91 14.0821C152.91 13.0857 152.742 12.1169 152.407 11.1482C152.072 10.2071 151.569 9.34908 150.954 8.60176C150.339 7.85444 149.557 7.24551 148.69 6.77497C147.796 6.30444 146.79 6.08301 145.7 6.08301H128.962V37.3321H142.906C144.443 37.3321 145.924 37.166 147.293 36.8616C148.69 36.5571 149.892 36.0866 150.926 35.4223C151.96 34.7857 152.798 33.9553 153.385 32.9312C153.972 31.9071 154.279 30.7169 154.279 29.3053C154.223 27.1187 153.692 25.3473 152.659 24.0464ZM135.92 12.6705H142.403C142.934 12.6705 143.577 12.8919 143.968 13.3348C144.359 13.7777 144.75 14.525 144.75 15.5491C144.75 16.7116 144.331 17.5143 143.884 17.9018C143.437 18.2893 142.738 18.483 142.179 18.483H135.948V12.6705H135.92ZM144.778 30.2187C144.275 30.6339 143.521 30.8553 142.934 30.8553H136.032V24.6276H143.213C143.772 24.6276 144.499 24.8768 144.918 25.3473C145.337 25.8178 145.756 26.6205 145.756 27.7276C145.756 28.9732 145.281 29.8035 144.778 30.2187Z" fill="white"/>
<path d="M130.974 52.7491H120.998L118.483 58.5893H125.246V60.3884C123.876 61.4679 122.256 62.2152 120.635 62.2152C119.573 62.2152 118.623 62.0214 117.757 61.6616C116.89 61.3018 116.164 60.7759 115.549 60.1116C114.934 59.4473 114.459 58.6447 114.096 57.7313C113.761 56.8179 113.593 55.7661 113.593 54.6313C113.593 53.5241 113.761 52.5 114.096 51.5589C114.431 50.6179 114.906 49.8152 115.521 49.1232C116.136 48.4313 116.834 47.9054 117.673 47.5455C117.729 47.5179 117.784 47.4902 117.84 47.4625C118.567 47.1304 119.489 46.9089 120.523 46.9089C120.691 46.9089 120.858 46.9089 121.026 46.9366C121.11 46.9366 121.194 46.9366 121.277 46.9643H121.305C121.613 46.992 121.92 47.0473 122.2 47.1304C123.15 47.3241 124.016 47.5732 124.854 47.933C125.804 48.3205 126.671 48.8188 127.481 49.3723L129.912 43.6429C129.186 43.0063 128.403 42.4527 127.537 41.9822C126.559 41.4563 125.469 41.0411 124.323 40.7643C123.15 40.4875 121.948 40.3491 120.691 40.3491C118.651 40.3491 116.778 40.7089 115.018 41.4286C113.258 42.1482 111.749 43.117 110.435 44.3625C109.15 45.608 108.116 47.075 107.389 48.7634C106.663 50.4518 106.271 52.2786 106.271 54.2438C106.271 56.5134 106.635 58.5339 107.389 60.3054C108.116 62.0768 109.122 63.5714 110.351 64.817C111.581 66.0348 113.034 66.9759 114.711 67.6125C116.359 68.2491 118.12 68.5813 119.936 68.5813C124.184 68.5813 128.096 67.3911 130.974 64.0973V52.7491Z" fill="white"/>
<path d="M241.325 9.70886L240.683 8.98922C240.655 8.96154 240.655 8.96154 240.627 8.96154L238.671 8.74011C238.643 8.74011 238.643 8.74011 238.615 8.74011L237.525 9.18297C237.525 9.18297 237.497 9.18297 237.497 9.21065L236.966 9.76422C236.91 9.81958 236.938 9.93029 237.022 9.93029H237.246C237.273 9.93029 237.301 9.93029 237.301 9.95797L237.553 10.2071C237.581 10.2348 237.609 10.2348 237.637 10.2348L239.313 10.0133C239.397 10.0133 239.425 9.87493 239.369 9.81958C239.285 9.76422 239.341 9.6535 239.425 9.62583L240.375 9.57047C240.403 9.57047 240.403 9.57047 240.403 9.57047L241.214 9.84726C241.297 9.90261 241.381 9.7919 241.325 9.70886Z" fill="white"/>
<path d="M210.531 18.2339L209.721 18.3446C209.693 18.3446 209.665 18.3723 209.665 18.3723L208.966 19.0366C208.91 19.0919 208.91 19.175 208.966 19.2303L209.218 19.4241C209.246 19.4517 209.274 19.4517 209.33 19.4517L209.944 19.3687C209.972 19.3687 209.972 19.3687 210 19.341L210.503 19.0366C210.531 19.0089 210.559 18.9812 210.559 18.9535L210.699 18.4C210.699 18.2892 210.643 18.2062 210.531 18.2339Z" fill="white"/>
<path d="M209.134 17.5973V17.5696C209.106 17.5143 209.05 17.4866 208.994 17.5143L208.267 17.625C208.211 17.625 208.183 17.6527 208.183 17.708L207.932 18.2616C207.904 18.317 207.82 18.3446 207.764 18.317L206.367 17.708C206.255 17.6527 206.144 17.7634 206.199 17.8741V17.9018C206.199 17.9295 206.227 17.9295 206.227 17.9571L207.848 19.2303C207.876 19.258 207.96 19.258 207.988 19.2303L208.379 18.9812C208.407 18.9536 208.435 18.9259 208.435 18.8705L208.463 18.2339C208.463 18.2062 208.491 18.1509 208.519 18.1232L209.078 17.7357C209.134 17.7357 209.162 17.6527 209.134 17.5973Z" fill="white"/>
<path d="M206.256 14.4142L208.715 14.4419C208.799 14.4419 208.854 14.3865 208.854 14.3035V14.0544C208.854 13.9714 208.966 13.8883 209.05 13.9437L209.609 14.2205C209.637 14.2482 209.665 14.2482 209.693 14.2205L209.805 14.1928C209.888 14.1651 209.944 14.0544 209.86 13.9714L209.05 13.224C209.022 13.1964 208.994 13.1964 208.966 13.1964L207.932 13.058C207.876 13.058 207.82 13.0026 207.82 12.9196C207.82 12.8642 207.765 12.8089 207.709 12.7812L206.814 12.7258C206.787 12.7258 206.759 12.7258 206.759 12.7535L205.417 13.4455C205.389 13.4732 205.361 13.5008 205.361 13.5285L205.25 14.0267C205.222 14.1098 205.306 14.1928 205.389 14.1928L205.669 14.1651C205.697 14.1651 205.725 14.1651 205.725 14.1374L205.92 13.9714C206.004 13.916 206.116 13.9714 206.116 14.0544V14.2205C206.144 14.3589 206.2 14.4142 206.256 14.4142Z" fill="white"/>
<path d="M225.425 7.88209L225.397 7.85442L224.084 7.3562C224.084 7.3562 224.056 7.3562 224.028 7.3562L223.162 7.38388C223.106 7.38388 223.05 7.43924 223.05 7.49459V7.85442C223.05 7.90977 223.078 7.93745 223.134 7.96513L223.832 8.15888C223.832 8.15888 223.832 8.15888 223.86 8.15888L224.168 8.29727C224.196 8.29727 224.196 8.32495 224.196 8.32495L224.475 8.74013C224.503 8.76781 224.559 8.79549 224.587 8.76781L225.174 8.57406C225.201 8.57406 225.229 8.57406 225.257 8.57406L225.537 8.76781H225.565L226.04 8.9062C226.068 8.9062 226.096 8.9062 226.124 8.9062L226.291 8.79549C226.347 8.76781 226.347 8.68477 226.291 8.62942L225.425 7.88209Z" fill="white"/>
<path d="M255.828 20.1991L255.856 19.9776C255.856 19.95 255.856 19.9223 255.828 19.8946L255.353 19.1196C255.325 19.0919 255.325 19.0643 255.269 19.0643L254.124 18.6768H254.096H253.872C253.788 18.6768 253.732 18.7321 253.732 18.8152V19.2857C253.732 19.3134 253.732 19.341 253.76 19.341L254.04 19.8116L254.263 20.1437C254.291 20.1714 254.291 20.1714 254.319 20.1991L254.655 20.3098C254.683 20.3098 254.683 20.3098 254.71 20.3098L255.661 20.2821C255.744 20.3375 255.8 20.2821 255.828 20.1991Z" fill="white"/>
<path d="M253.928 17.5972C253.9 17.5972 253.872 17.5695 253.872 17.5695L252.308 17.5419C252.28 17.5419 252.224 17.5695 252.196 17.5972L251.805 18.0124C251.721 18.0954 251.777 18.2062 251.888 18.2338L252.196 18.2892C252.224 18.2892 252.224 18.2892 252.252 18.2892L252.727 18.2338L253.314 18.1231C253.369 18.1231 253.425 18.0678 253.425 17.9847V17.957C253.425 17.874 253.481 17.8187 253.565 17.8187H253.9C253.984 17.8187 254.04 17.6526 253.928 17.5972Z" fill="white"/>
<path d="M279.553 50.2857C278.631 49.8428 277.541 50.5071 276.842 49.566C276.144 48.6249 274.076 47.9883 274.076 47.9883C274.076 47.9883 273.014 47.2964 271.98 47.6008C270.946 47.9053 270.164 46.7982 270.164 46.7982C270.164 46.7982 269.13 47.1026 268.599 46.4107C268.068 45.7187 264.295 45.0267 264.295 45.0267C264.295 45.0267 262.395 45.3312 262.2 44.5839C262.032 43.8365 261.725 43.449 261.445 43.6151C261.138 43.7812 261.277 44.1133 260.523 44.0026C259.768 43.8919 258.874 43.7812 258.148 43.366C257.421 42.9508 256.75 42.9508 256.192 43.0892C255.884 43.1723 255.325 42.9785 254.878 42.8124L254.906 41.5946L255.437 40.2107L255.493 32.7098L256.136 31.2705L256.527 37.7473L257.17 23.3821L256.639 22.4687L257.309 21.2232L256.974 20.8357L257.058 19.258L255.856 16.7116L254.291 15.9089L253.76 15.383L253.202 10.6223L252.391 15.5214L252.112 15.7705L251.888 15.4937L251.441 12.6428L251.078 16.3517L250.742 15.2169L250.239 17.0437L249.541 17.6249L249.038 20.1991L249.122 20.6973L249.485 21.8598V22.7732V24.8214L249.066 26.1223V30.6062L249.737 34.6196L250.044 31.741L250.491 33.0696L250.044 38.5223L250.156 41.4562C249.904 41.3178 249.625 41.1517 249.401 40.9857C249.401 40.9857 248.786 41.0687 248.032 40.5982C247.277 40.1276 247.249 40.7089 246.439 40.4321C245.629 40.1553 246.271 39.2973 245.545 39.3249C244.818 39.3249 244.064 39.574 241.912 39.0482C241.912 39.0482 241.633 38.9651 241.186 38.8544V37.3321L241.353 36.2249L241.381 27.5339C241.381 27.5339 241.772 25.5964 241.828 25.5964C241.884 25.5964 241.856 34.4812 241.856 34.4812L242.247 33.5678L242.806 20.7526L242.108 18.5383L242.247 13.8883L243.086 11.2589L242.499 8.3803L241.605 8.04816L240.85 6.08298L240.459 7.07941L238.95 6.38745L238.503 4.17316L237.916 6.85798L237.385 2.29102L236.575 7.57763L235.345 9.04459L235.234 10.0964L234.703 11.5357L234.926 13.1687L234.535 14.5526L235.038 15.4383L235.317 22.8008V22.8562L235.457 23.2714L235.429 23.9633L235.317 28.4473L235.932 30.7999L235.96 36.9446L235.988 37.2767C235.625 37.1383 235.373 37.0276 235.234 36.9446C234.451 36.391 233.864 35.2562 232.355 35.1455C231.824 34.8964 231.824 34.6196 231.154 34.3705C230.483 34.1214 229.086 33.3187 228.555 33.3741C227.996 33.4294 227.325 33.5678 227.325 33.5678L227.046 33.4848L227.186 27.091L226.794 25.4857L226.906 19.6178L227.269 18.1508L227.521 24.4615L227.828 15.6598L228.443 14.0267L228.303 12.5321L228.247 11.1205L228.136 9.21066L227.828 7.49459L227.297 7.3562L226.906 3.28745L226.291 6.66423L226.096 3.53655L225.649 5.55709L225.257 0.464233L223.944 5.72316L222.239 6.33209L219.836 6.94102L218.579 9.32137L218.607 14.1098L219.557 16.5732L219.501 20.8357L220.675 23.991L219.976 25.4857L220.255 31.4642L220.283 31.7964C220.228 31.7964 220.172 31.7687 220.144 31.7687C219.361 31.5473 219.501 30.7999 219.026 30.5508C219.026 30.5508 217.852 31.2705 216.204 30.8553C214.555 30.4401 211.202 29.3053 211.202 29.3053C211.202 29.3053 211.062 29.2776 210.838 29.1946V27.4785V25.7901L211.481 24.1017L211.565 20.6696L211.788 20.1437L211.705 18.7321L212.208 17.791L212.599 16.3794L211.677 12.1169L211.313 13.8883L210.671 6.69191L209.497 12.6705L208.882 9.04459L208.267 11.591L206.339 11.4803L204.243 13.141V14.3312L203.629 15.5767L203.768 17.2651L203.629 18.5107L203.657 21.1124L202.93 23.7142L203.908 27.8383V27.8937C202.092 28.0044 198.543 27.5892 197.593 27.0633C196.643 26.5098 196.279 25.8455 195.218 25.8455C194.156 25.8455 194.267 25.541 193.401 24.9598C192.535 24.3508 191.529 23.7419 191.389 23.7142C190.97 23.6589 190.746 23.3544 190.467 23.1883C190.02 22.9392 189.321 22.8562 188.874 22.7732C188.623 22.7178 188.343 22.6624 188.092 22.7732C187.896 22.8562 187.784 22.9946 187.645 23.133C187.477 23.3267 187.281 23.4928 187.114 23.6866C186.918 23.8803 184.319 24.683 184.096 26.0116C183.9 27.1187 182.475 27.866 185.186 31.0767C187.114 33.3741 192.563 32.8205 192.926 33.4848C193.289 34.1767 194.798 33.7616 195.218 34.0383C195.637 34.3151 197.816 36.2803 198.655 36.308C199.493 36.3357 199.605 36.0035 200.024 36.308C200.443 36.6124 202.232 37.0276 202.232 37.0276C202.232 37.0276 203.014 37.4705 204.02 37.5258V39.0205L204.243 39.9615L204.551 54.4098L205.138 42.6464L205.473 43.7812L205.557 53.6348L206.228 56.5687L206.116 59.8901L206.339 61.108L206.367 64.2356L207.15 71.7365L207.932 64.2356L207.848 60.2776L208.379 58.5339L208.407 52.9428L208.854 62.1044L209.525 47.9053L209.413 46.9642L210.531 43.7535L210.503 40.5705L210.922 39.7124V38.1348L211.509 38.2178C211.509 38.2178 215.253 38.4669 215.337 39.2973C215.421 40.1276 216.707 41.2071 219.166 41.5946C220.647 41.6499 220.87 42.5633 220.87 42.5633C220.87 42.5633 220.898 42.6464 220.982 42.7571V42.8955L220.926 46.0785L221.513 48.6249L221.457 51.6142L221.736 53.2473L222.072 65.2321L222.463 59.724L222.547 67.6955L222.966 73.4249L224.056 60.6098L223.916 56.8455L224.587 54.6865L224.754 46.0508L225.174 42.9232C225.23 42.9232 225.285 42.8955 225.341 42.8955L225.425 54.2437L226.347 42.8124C226.794 42.7571 227.102 42.7017 227.102 42.7017C227.102 42.7017 228.443 42.2312 228.862 43.0339C229.281 43.8365 229.673 44.7776 230.008 44.6669C230.371 44.5285 231.014 44.224 231.293 44.916C231.601 45.608 231.796 45.6357 230.707 45.7464C230.623 45.7464 230.623 46.0785 231.182 46.2999C231.74 46.5214 231.88 46.5767 232.271 46.2999C233.92 45.1928 234.954 45.4419 234.954 45.4419C234.954 45.4419 236.295 45.1098 236.687 45.5526C236.715 45.5803 236.742 45.6357 236.798 45.6633L236.854 50.2303L236.435 52.1955L237.413 60.9419L237.776 53.8285L238.363 54.6865L238.643 66.9205L239.257 61.7169V59.0321L239.9 57.399V48.9571L240.515 46.9089C240.878 47.0196 241.186 47.1857 241.325 47.3794C241.744 48.016 243.98 47.2964 244.567 47.3794C245.154 47.4624 247.585 48.0437 247.585 48.0437C247.585 48.0437 247.389 48.5419 247.976 48.4589C248.563 48.4035 250.519 47.158 251.273 47.241C251.441 47.2687 251.609 47.2687 251.748 47.2687L251.86 48.0714L251.888 52.0848L251.497 55.4615L252.307 57.233L252.81 69.1071L253.481 61.5785L254.012 59.9732L254.235 53.358L254.655 62.4089L255.325 50.0642L254.906 47.6839C257.505 48.1267 261.557 48.9294 262.032 49.649C262.731 50.7285 263.569 50.6178 263.345 49.649C263.206 49.0124 262.535 48.4589 262.004 48.1267C261.305 47.7115 264.91 48.5419 264.91 48.5419C266.475 49.0124 268.794 49.5937 269.241 49.5383C269.856 49.483 270.136 49.5937 270.471 49.9535C270.806 50.2857 270.946 51.0883 272.176 50.8946C273.405 50.7008 273.936 50.3964 275.166 50.8946C276.423 51.3928 278.016 51.2267 278.938 51.2267C279.86 51.3374 280.475 50.7562 279.553 50.2857ZM207.01 38.6607L206.619 24.5446L206.479 23.1053L206.283 21.5276C206.255 21.3339 205.976 21.3062 205.92 21.4999C205.92 21.5276 205.92 21.5553 205.92 21.5553L206.228 34.0383L205.305 21.0017V20.9741L205.082 19.9776C205.054 19.8946 205.11 19.7839 205.222 19.7562L205.473 19.7008C205.557 19.6732 205.613 19.6178 205.613 19.5348L205.669 19.0089C205.669 18.8982 205.78 18.8151 205.892 18.8428L206.116 18.8982C206.2 18.9258 206.255 18.9812 206.255 19.0642L206.367 20.1991C206.367 20.2544 206.395 20.3098 206.451 20.3374L207.178 20.808C207.234 20.8357 207.261 20.891 207.261 20.9741L207.01 38.6607ZM210.419 20.2544C210.391 20.2544 210.363 20.2821 210.363 20.3098L210.196 20.6696C210.196 20.6973 210.196 20.6973 210.196 20.7249L210.056 24.9321C210.056 25.0982 209.804 25.0982 209.804 24.9321L209.357 20.808V20.7803L209.022 20.116C208.994 20.0607 208.938 20.033 208.882 20.033L208.603 20.0883C208.547 20.0883 208.491 20.1437 208.491 20.1991L208.407 21.6107C208.407 21.7491 208.184 21.7767 208.156 21.6107L207.932 20.2821C207.932 20.2544 207.932 20.2544 207.904 20.2267L207.569 19.8116C207.569 19.8116 207.569 19.8116 207.541 19.7839L205.417 17.9571C205.361 17.9294 205.305 17.9294 205.249 17.9571L205.166 18.0124C205.11 18.0401 205.082 18.1232 205.138 18.1785L205.361 18.5383C205.389 18.5937 205.361 18.7044 205.305 18.7321L205.166 18.7874C205.138 18.8151 205.082 18.7874 205.054 18.7598L204.383 18.2616C204.355 18.2339 204.327 18.2062 204.327 18.1508L204.299 16.6562C204.299 16.6285 204.299 16.6008 204.271 16.5732L203.88 16.158C203.852 16.1303 203.824 16.0749 203.852 16.0196L204.579 14.4419C204.579 14.4142 204.579 14.4142 204.579 14.3866L204.551 13.6116C204.551 13.5562 204.579 13.5285 204.607 13.5008L206.004 12.6705H206.032L207.038 12.366C207.066 12.366 207.066 12.366 207.094 12.366L208.882 12.6982C208.91 12.6982 208.91 12.6982 208.938 12.7258L210.643 13.8883C210.671 13.8883 210.671 13.916 210.671 13.916L211.593 15.4383C211.593 15.466 211.593 15.466 211.621 15.4937L211.816 16.8499C211.816 16.8776 211.816 16.8776 211.816 16.9053L211.649 17.791C211.649 17.8187 211.649 17.8187 211.621 17.8464L211.034 18.7044C211.034 18.7321 211.006 18.7321 211.006 18.7598L210.95 19.5901C210.95 19.6178 210.95 19.6178 210.95 19.6455L211.006 19.8392C211.034 19.8946 211.006 19.9499 210.95 19.9776L210.419 20.2544ZM219.613 10.2901L219.976 9.81959C220.004 9.76423 220.088 9.76423 220.144 9.79191C220.228 9.81959 220.255 9.90263 220.2 9.98566L220.06 10.2624L219.892 10.5116C219.836 10.5946 219.752 10.5946 219.669 10.5392L219.585 10.4562C219.585 10.4285 219.585 10.3455 219.613 10.2901ZM226.347 10.4008C226.291 10.3178 226.18 10.3455 226.152 10.4285L225.928 11.4803C225.9 11.591 225.733 11.591 225.733 11.4526L225.649 10.0687C225.649 9.98566 225.537 9.9303 225.481 9.98566L225.118 10.2624C225.09 10.2624 225.09 10.2901 225.062 10.2901L224.95 10.3178C224.894 10.3178 224.866 10.2901 224.838 10.2624L224.559 9.45977L224.503 9.59816V9.62584L224.475 9.84727V9.87495L224.615 10.5669V10.5946L224.782 10.9267C224.782 10.9544 224.782 10.9544 224.782 10.9821L224.727 11.5357V11.5633L224.503 12.0616V12.0892L224.168 31.7687L223.888 20.5866C223.888 20.4482 223.693 20.4482 223.693 20.5866C223.693 20.7249 223.497 20.7249 223.497 20.5866L223.413 11.8955C223.413 11.8678 223.385 11.8124 223.357 11.8124L223.05 11.6741C223.022 11.6741 223.022 11.6464 222.994 11.6187L222.715 11.2589C222.715 11.2312 222.687 11.2312 222.659 11.2035L222.1 11.0098C222.1 11.0098 222.267 11.2589 222.267 11.2866C222.267 11.3142 222.407 11.591 222.463 11.6741C222.463 11.7017 222.463 11.7017 222.463 11.7294L222.323 14.9124C222.323 15.0508 222.128 15.0508 222.128 14.9124L221.932 11.5633C221.932 11.508 221.904 11.4803 221.848 11.4803L221.122 11.2866C221.094 11.2866 221.066 11.2866 221.038 11.2866L220.87 11.3973C220.842 11.4249 220.814 11.4249 220.814 11.4526C220.786 11.6464 220.647 12.366 220.647 12.3937C220.647 12.4214 220.451 12.0339 220.395 11.8678C220.367 11.8401 220.339 11.8124 220.311 11.8124H219.808L219.333 11.8401L219.054 11.8678L219.305 11.4803C219.305 11.4526 219.333 11.4526 219.361 11.4526L219.976 11.2312C220.004 11.2312 220.032 11.2035 220.032 11.1482L220.116 10.8437C220.144 10.7607 220.255 10.733 220.311 10.816L220.451 11.0098C220.479 11.0374 220.507 11.0651 220.535 11.0651L220.954 11.0374C221.01 11.0374 221.038 10.9821 221.038 10.9267L221.01 10.0964C221.01 10.0687 220.982 10.041 220.982 10.0133L220.842 9.90262C220.786 9.87495 220.786 9.79191 220.842 9.73655L221.261 9.32137C221.261 9.32137 221.261 9.32137 221.261 9.2937L221.485 8.93388C221.513 8.87852 221.597 8.87852 221.653 8.9062L222.239 9.45977C222.267 9.48745 222.267 9.5428 222.239 9.59816L221.988 9.9303V9.95798L221.96 10.041C221.96 10.0687 221.96 10.1241 221.988 10.1517L222.547 10.7607C222.575 10.7883 222.575 10.7883 222.603 10.7883L223.553 10.9267C223.581 10.9267 223.609 10.9267 223.637 10.8991L223.972 10.5669C224 10.5392 224 10.5116 224 10.4839L223.86 9.5428C223.86 9.51512 223.86 9.51512 223.832 9.48745L223.106 8.57405C223.078 8.54638 223.05 8.54638 223.022 8.54638L221.876 8.46334C221.82 8.46334 221.234 8.35262 221.234 8.32495C221.234 8.29727 221.373 7.93745 221.401 7.79905C221.401 7.77138 221.457 7.7437 221.485 7.7437L222.295 7.63298C222.323 7.63298 222.351 7.6053 222.379 7.57763L222.547 7.24548C222.575 7.2178 222.603 7.19012 222.631 7.19012L224.084 6.94102C224.112 6.94102 224.112 6.94102 224.14 6.94102L225.481 7.3562C225.481 7.3562 225.481 7.3562 225.509 7.3562L226.459 7.88209C226.487 7.88209 226.487 7.90977 226.487 7.90977L227.465 9.45977C227.465 9.48745 227.493 9.48745 227.493 9.51513L227.325 13.6392L227.241 14.6357L226.99 11.4249C226.99 11.3973 226.99 11.3973 226.962 11.3696L226.347 10.4008ZM240.878 16.7116L240.906 17.8187V17.8464L240.711 18.4553V18.483L240.459 30.3017L240.04 16.5732C240.04 16.5455 240.068 16.4901 240.096 16.4901L240.794 16.158C240.822 16.1303 240.85 16.1026 240.85 16.0749V15.7982C240.85 15.7705 240.822 15.7151 240.794 15.7151L240.18 15.383C240.152 15.3553 240.124 15.3276 240.124 15.2999L240.04 14.4696L239.844 14.8571H239.733L239.649 12.4767C239.649 12.3383 239.453 12.3383 239.453 12.4767L239.285 14.9955C239.285 15.0232 239.257 15.0508 239.257 15.0785L239.006 15.2723C238.95 15.2999 238.894 15.2999 238.866 15.2446L238.559 14.8571L238.531 14.8294L238.363 14.3035C238.363 14.2482 238.307 14.2205 238.251 14.2205H238.224C238.168 14.2205 238.112 14.2758 238.112 14.3312V14.691C238.112 14.7464 238.056 14.8017 238 14.8017L237.693 14.7741C237.665 14.7741 237.637 14.7464 237.637 14.7464L237.469 14.5526C237.441 14.5249 237.413 14.5249 237.385 14.5249L236.128 14.4696C236.072 14.4696 236.016 14.4973 236.016 14.5526L235.932 15.0785C235.932 15.1062 235.932 15.1616 235.96 15.1616L236.631 15.7151C236.659 15.7428 236.687 15.7428 236.715 15.7428L237.218 15.7151H237.245L237.972 15.383C238 15.383 238 15.383 238.028 15.383L238.391 15.4383C238.419 15.4383 238.447 15.466 238.475 15.4937L238.894 16.3241C238.922 16.3517 238.95 16.3794 238.978 16.3794L239.509 16.4624C239.565 16.4624 239.593 16.5178 239.593 16.5732C239.565 17.8187 239.285 32.0732 239.257 36.0035C239.202 32.6821 238.978 22.0535 238.894 18.6214C238.894 18.5107 238.699 18.483 238.699 18.6214L238.587 19.2303C238.559 19.341 238.391 19.341 238.391 19.2303L238.196 17.8464C238.196 17.8187 238.196 17.8187 238.168 17.8187L237.916 17.4312C237.916 17.4035 237.888 17.4035 237.888 17.3758V17.1821C237.888 17.0991 237.972 17.0714 238.028 17.0991L238.391 17.2651C238.447 17.2928 238.503 17.2651 238.531 17.2098L238.699 16.8499C238.699 16.8223 238.699 16.7946 238.699 16.7669L238.307 15.9366C238.279 15.8812 238.196 15.8535 238.14 15.9089L237.721 16.2687C237.693 16.2964 237.693 16.2964 237.693 16.3241L237.525 17.2928C237.525 17.3205 237.497 17.3482 237.497 17.3482L237.162 17.6526C237.134 17.6803 237.134 17.708 237.134 17.7357L236.938 23.5205C236.938 23.6312 236.77 23.6589 236.742 23.5482L236.547 22.6071C236.547 22.6071 236.547 22.6071 236.547 22.5794L236.519 16.5455C236.519 16.4901 236.463 16.4348 236.407 16.4348H236.156C236.1 16.4348 236.072 16.4071 236.044 16.3517L235.96 15.7982C235.96 15.7705 235.96 15.7428 235.932 15.7428L235.317 15.1616C235.289 15.1339 235.289 15.1062 235.289 15.0785L235.373 13.4178C235.373 13.3624 235.401 13.3348 235.457 13.3348L235.653 13.3071C235.709 13.3071 235.764 13.3348 235.764 13.3901L235.848 13.7499C235.848 13.8053 235.904 13.833 235.96 13.833L236.463 13.7499C236.547 13.7223 236.575 13.6392 236.519 13.5839L235.988 13.058C235.96 13.0303 235.96 13.0026 235.96 12.9749L236.016 12.5598C236.016 12.5321 236.016 12.5044 235.988 12.4767L235.681 12.1169C235.653 12.0892 235.653 12.0616 235.653 12.0616L235.681 10.4839C235.681 10.4562 235.681 10.4285 235.709 10.4285L236.659 9.1553C236.659 9.12762 236.687 9.12762 236.715 9.12762L238.028 8.68477C238.084 8.65709 238.112 8.62941 238.084 8.57405V8.40798C238.084 8.35263 238.14 8.29727 238.196 8.29727L240.124 8.35262C240.152 8.35262 240.18 8.35263 240.18 8.3803L240.962 8.98923L241.94 10.0964L241.968 10.1241L242.443 11.591V11.6187V12.2553C242.443 12.283 242.443 12.3107 242.415 12.3383L241.8 12.9473L241.158 13.6116C241.13 13.6392 241.13 13.6669 241.13 13.6946L241.102 14.8017C241.102 14.8294 241.102 14.8571 241.074 14.8848L240.766 15.1892C240.711 15.2446 240.738 15.2999 240.766 15.3553L241.102 15.5767C241.102 15.5767 241.13 15.5767 241.13 15.6044L241.549 15.7151C241.605 15.7428 241.633 15.7982 241.605 15.8258L241.437 16.4348C241.437 16.4624 241.409 16.4901 241.381 16.4901L240.822 16.7946C240.906 16.6562 240.878 16.6839 240.878 16.7116ZM250.77 41.733L250.938 40.0169L251.245 36.5294L251.469 42.0098C251.245 41.9267 251.022 41.8437 250.77 41.733ZM253.788 23.5205C253.788 23.5482 253.788 23.5758 253.76 23.6035L253.621 23.7419C253.593 23.7696 253.593 23.7973 253.593 23.8249L253.565 25.0982C253.565 25.2642 253.341 25.2642 253.313 25.1258L253.146 24.1294C253.146 24.0741 253.09 24.0187 253.034 24.0187C252.95 24.0187 252.894 24.0741 252.894 24.1294L252.838 25.2919V25.3196L252.727 25.7071V25.7348L252.503 40.8473L252.112 24.4892C252.112 24.4339 252.084 24.3785 252.028 24.3785L251.888 24.3232C251.832 24.2955 251.804 24.2678 251.804 24.2124V23.8803C251.804 23.8526 251.776 23.8249 251.776 23.7973L251.748 23.7696C251.693 23.7142 251.693 23.6312 251.748 23.5758L252.084 23.2991C252.112 23.2991 252.112 23.2714 252.112 23.2437L252.279 22.8839C252.307 22.8285 252.335 22.8008 252.391 22.8008H253.23C253.285 22.8008 253.341 22.8285 253.341 22.8839L253.369 22.9669C253.369 22.9946 253.425 23.0223 253.453 23.0499L253.621 23.1053C253.649 23.1053 253.677 23.133 253.705 23.1883L253.788 23.4098C253.788 23.4374 253.788 23.4374 253.788 23.4651V23.5205ZM254.85 21.1124L254.599 20.891C254.543 20.8633 254.487 20.8357 254.431 20.8633L254.068 21.0571C254.012 21.0848 253.984 21.1678 254.012 21.2508L254.18 21.5276C254.18 21.5553 254.208 21.583 254.208 21.6107L254.152 22.1919C254.152 22.2749 254.096 22.3303 254.012 22.3026H253.956C253.9 22.3026 253.844 22.2749 253.844 22.2196L253.677 21.666C253.649 21.6107 253.621 21.583 253.565 21.583L252.419 21.5553C252.391 21.5553 252.363 21.5553 252.335 21.583L252.084 21.7491C252.056 21.7767 252.056 21.7767 252.028 21.8044L251.972 21.9428C251.944 21.9982 251.916 22.0258 251.86 22.0258H251.832C251.748 22.0258 251.693 21.9705 251.693 21.8874V21.6383C251.693 21.6107 251.721 21.583 251.721 21.5553L252.112 21.1678C252.14 21.1401 252.14 21.1124 252.14 21.0848L252.196 20.6973C252.196 20.6419 252.251 20.5866 252.307 20.5866L252.531 20.5589C252.587 20.5589 252.615 20.5312 252.643 20.4758L252.727 20.2544C252.754 20.1991 252.782 20.1714 252.838 20.1714H252.894C252.95 20.1714 253.006 20.1991 253.034 20.2544L253.118 20.4482C253.146 20.5035 253.174 20.5312 253.23 20.5312H253.313C253.397 20.5312 253.453 20.4482 253.453 20.3651L253.425 20.116C253.425 20.0883 253.425 20.0883 253.397 20.0607L253.062 19.6178C253.034 19.5901 253.006 19.5624 252.978 19.5624H252.894C252.838 19.5624 252.782 19.5901 252.754 19.6455L252.643 19.8946C252.615 19.9499 252.559 19.9776 252.503 19.9776H252.419C252.363 19.9776 252.307 19.9223 252.307 19.8392V19.0919C252.307 19.0642 252.307 19.0642 252.307 19.0366L252.224 18.8428C252.196 18.7874 252.14 18.7598 252.056 18.7598L251.469 18.8982C251.441 18.8982 251.441 18.8982 251.441 18.9258L250.77 19.3687C250.742 19.3964 250.715 19.4241 250.715 19.4517L250.519 20.0883C250.519 20.0883 250.519 20.0883 250.519 20.116C250.519 20.1714 250.463 20.4205 250.519 20.4205C250.575 20.4205 251.106 20.3928 251.273 20.3651C251.301 20.3651 251.329 20.3374 251.357 20.3098L251.469 20.1991C251.497 20.1714 251.553 20.1437 251.581 20.1437L251.776 20.1714C251.86 20.1714 251.888 20.2544 251.888 20.3098L251.86 20.4758C251.86 20.5035 251.832 20.5589 251.804 20.5589L251.441 20.8633C251.413 20.891 251.385 20.9187 251.385 20.9741L251.413 21.4723C251.413 21.4723 251.413 21.4723 251.413 21.4999L251.134 23.8249C251.134 23.8249 251.134 23.8249 251.134 23.8526L250.91 24.8491L250.938 21.4723C250.938 21.4446 250.938 21.4169 250.91 21.3892L250.715 21.1401C250.631 21.0571 250.491 21.0848 250.491 21.1955C250.435 21.3892 250.379 21.6107 250.379 21.6107C250.379 21.583 250.24 20.9741 250.212 20.7803C250.212 20.7526 250.184 20.6973 250.156 20.6973C250.044 20.6419 249.764 20.5035 249.764 20.4482C249.764 20.3928 249.792 19.7562 249.792 19.5901C249.792 19.5624 249.792 19.5348 249.82 19.5071L250.295 18.8982C250.323 18.8705 250.351 18.8705 250.379 18.8428L250.742 18.7598C250.77 18.7598 250.798 18.7321 250.798 18.7321L251.301 18.2062C251.357 18.1508 251.357 18.0955 251.329 18.0401L251.301 17.9848C251.245 17.9294 251.273 17.8464 251.357 17.791L252.14 17.3205C252.168 17.3205 252.168 17.2928 252.196 17.2928L254.124 17.2098C254.152 17.2098 254.18 17.2098 254.208 17.2374L254.906 17.6803C254.934 17.708 254.934 17.708 254.962 17.7357L255.242 18.3723C255.242 18.3999 255.269 18.3999 255.269 18.4276L256.359 19.4241C256.387 19.4517 256.387 19.4517 256.387 19.4794L256.555 19.9223C256.555 19.9499 256.555 19.9499 256.555 19.9776L256.527 20.4758C256.527 20.5312 256.471 20.5866 256.415 20.5866L256.303 20.6142C256.22 20.6142 256.164 20.6973 256.192 20.7803L256.275 21.0017C256.275 21.0294 256.275 21.0571 256.275 21.0848L256.024 21.7767L255.884 22.1919V22.2196L255.772 27.6169C255.772 27.783 255.521 27.783 255.493 27.6169L255.074 22.8839L254.906 21.1955C254.906 21.1678 254.878 21.1401 254.85 21.1124Z" fill="white"/>
</svg>
