<svg width="79" height="61" viewBox="0 0 79 61" fill="none" xmlns="http://www.w3.org/2000/svg">
<path d="M78.4076 41.6258C77.6503 41.2492 76.7599 41.8106 76.199 41.0217C75.6381 40.2257 73.9483 39.7141 73.9483 39.7141C73.9483 39.7141 73.0859 39.1384 72.2374 39.4013C71.3892 39.6643 70.7441 38.7404 70.7441 38.7404C70.7441 38.7404 69.8957 38.9891 69.468 38.4206C69.0403 37.8521 65.9623 37.2621 65.9623 37.2621C65.9623 37.2621 64.3988 37.5109 64.2585 36.8855C64.1182 36.26 63.8799 35.9402 63.6345 36.0752C63.389 36.2031 63.5013 36.4875 62.8843 36.4022C62.2673 36.317 61.5381 36.2104 60.9561 35.8692C60.3671 35.5281 59.8272 35.521 59.3715 35.6347C59.1191 35.6986 58.6633 35.5494 58.3057 35.4072L58.3198 34.3909L58.7614 33.2395L58.8106 26.9854L59.3364 25.7773L59.666 31.1927L60.1778 19.1961L59.7501 18.4356L60.283 17.398L60.0095 17.0782L60.0656 15.7563L59.0839 13.6171L57.8149 12.949L57.3733 12.5155L56.9244 8.54975L56.2654 12.6505L56.034 12.8566L55.8517 12.6221L55.4731 10.2483L55.1786 13.347L54.9122 12.4018L54.5126 13.9227L53.9447 14.413L53.5309 16.5736L53.608 16.9857L53.9166 17.9594L53.9235 18.7128V20.3546L53.5729 21.449V25.2016L54.1269 28.5418L54.3723 26.1325L54.73 27.2413L54.3582 31.7898L54.4424 34.2275C54.225 34.1137 54.0218 33.9787 53.8254 33.8366C53.8254 33.8366 53.3346 33.9077 52.7105 33.5168C52.0867 33.1329 52.0655 33.6163 51.4065 33.3745C50.7474 33.1329 51.2592 32.4365 50.6703 32.4435C50.0814 32.4508 49.4503 32.6497 47.6974 32.209C47.6974 32.209 47.473 32.1451 47.1085 32.0385V30.7593L47.2487 29.8283L47.2768 22.5791C47.2768 22.5791 47.5852 20.9515 47.6343 20.9587C47.6764 20.9658 47.6554 28.3855 47.6554 28.3855L47.9779 27.6322L48.4266 16.9289L47.8657 15.0882L47.9779 11.2149L48.672 9.0117L48.2022 6.61664L47.4801 6.33237L46.8631 4.69063L46.5335 5.52926L45.3135 4.9536L44.956 3.09866L44.4862 5.33027L44.0585 1.50669L43.3854 5.92725L42.3757 7.16387L42.2845 8.03094L41.8568 9.22492L42.0461 10.5824L41.7377 11.7266L42.1444 12.4728L42.3757 18.6274L42.3687 18.6701L42.4809 19.0113L42.4599 19.6011L42.3757 23.3394L42.8736 25.3011L42.8946 30.4252L42.9227 30.7024C42.6351 30.5886 42.4177 30.4891 42.3126 30.4181C41.6675 29.9633 41.1837 29.0109 39.9708 28.9185C39.5431 28.7196 39.5431 28.4921 38.9822 28.2646C38.4212 28.0372 37.2994 27.3976 36.8577 27.4331C36.409 27.4686 35.855 27.5824 35.855 27.5824L35.6237 27.5042V27.4899L35.7288 22.1454L35.4063 20.8094L35.5044 15.9055L35.8059 14.6831L36.0233 19.9566L36.2758 12.615L36.7735 11.2646L36.6615 10.0138L36.6122 8.82693L36.5141 7.22785L36.2687 5.78512L35.834 5.6785L35.4485 2.36664L34.9435 5.19524L34.7752 2.57985L34.4037 4.27132L34.0953 0L33.0224 4.39215L31.6342 4.91096L29.678 5.42266L28.6543 7.41262L28.6753 11.4068L29.4466 13.4607L29.3905 17.0284L30.3371 19.6723L29.7621 20.9301L29.9934 25.9264L30.0075 26.2037C29.9655 26.1964 29.9234 26.1894 29.8814 26.1753C29.2503 25.9905 29.3554 25.372 28.9698 25.1659C28.9698 25.1659 28.0232 25.7559 26.677 25.4218C25.3379 25.0807 22.5963 24.1213 22.5963 24.1213C22.5963 24.1213 22.4843 24.0858 22.2879 24.036L22.2738 22.6075L22.2669 21.1931L22.7927 19.7718L22.8488 16.9077L23.0311 16.4741L22.9681 15.2943L23.3816 14.4983L23.6973 13.3186L22.94 9.76506L22.6456 11.2433L22.1196 5.24499L21.1521 10.2412L20.6471 7.22074L20.1424 9.34573L18.5718 9.24624L16.854 10.625L16.8611 11.62L16.3562 12.6718L16.4824 14.0861L16.3772 15.1238L16.3983 17.3057L15.8093 19.4732L16.6156 22.913V22.9557C15.1292 23.048 12.2265 22.7141 11.4622 22.2663C10.6769 21.8115 10.3824 21.2429 9.52705 21.2429C8.67166 21.2429 8.7628 21.0012 8.04062 20.4967C7.32545 19.9921 6.51914 19.4875 6.39293 19.4661C6.04938 19.4093 5.86707 19.1677 5.6427 19.0326C5.28513 18.8194 4.7172 18.7554 4.34558 18.6844C4.14226 18.6488 3.91087 18.5849 3.71456 18.6772C3.5603 18.7483 3.45513 18.862 3.34996 18.9758C3.20973 19.1392 3.04847 19.2884 2.90825 19.4448C2.761 19.6154 0.615493 20.2692 0.440205 21.3922C0.292966 22.3161 -0.877945 22.9343 1.33767 25.628C2.90825 27.5397 7.34648 27.0778 7.64799 27.6463C7.94247 28.215 9.17648 27.8809 9.51303 28.1011C9.84959 28.3286 11.6305 29.9774 12.3106 30.0058C12.9837 30.0272 13.0959 29.7571 13.4324 30.0058C13.769 30.2547 15.2344 30.61 15.2344 30.61C15.2344 30.61 15.8654 30.9866 16.6998 31.0293L16.7068 32.2801L16.8891 33.069L17.1414 45.1368L17.6113 35.3076L17.8847 36.26L17.9548 44.5042L18.5088 46.9561L18.4246 49.7208L18.6069 50.737L18.6279 53.3454L19.2729 59.6066L19.904 53.3382L19.834 50.0406L20.2616 48.5907L20.2897 43.9215L20.6612 51.5828L21.2011 39.7282L21.117 38.9395L22.0355 36.26L22.0145 33.595L22.358 32.8772L22.3509 31.548L22.8208 31.6121C22.8208 31.6121 25.8848 31.8182 25.9549 32.5217C26.0181 33.2183 27.0767 34.1066 29.089 34.4478C30.302 34.5046 30.4913 35.258 30.4913 35.258C30.4913 35.258 30.5194 35.3219 30.5684 35.4142L30.5755 35.5281L30.5264 38.1931L30.9961 40.3182L30.947 42.8198L31.1785 44.1772L31.4449 54.1768L31.7745 49.5858L31.8445 56.2309L32.1951 61.0067L33.0855 50.2965L32.9804 47.1481L33.5273 45.3357L33.6745 38.1363L34.0111 35.5281C34.0531 35.5208 34.1021 35.5138 34.1443 35.5067L34.2144 44.9804L34.9926 35.3858C35.3573 35.329 35.5956 35.2935 35.5956 35.2935C35.5956 35.2935 36.6964 34.8955 37.033 35.5778C37.3695 36.26 37.692 37.0418 37.9796 36.9352C38.267 36.8286 38.7929 36.5727 39.0313 37.1555C39.2696 37.7383 39.4519 37.7526 38.5475 37.8449C38.4843 37.8521 38.4704 38.1292 38.9332 38.3069C39.3958 38.4845 39.4941 38.5342 39.8305 38.3069C41.1837 37.3901 42.0181 37.5962 42.0181 37.5962C42.0181 37.5962 43.119 37.3119 43.4345 37.6957C43.4625 37.7312 43.4906 37.7667 43.5116 37.7951L43.5536 41.6117L43.203 43.2605L44.0024 50.5665L44.3108 44.6322L44.7877 45.35L45.019 55.5699L45.5308 51.2275V48.9816L46.0568 47.6242L46.0637 40.5812L46.5686 38.8613C46.877 38.9607 47.1224 39.0886 47.2207 39.245C47.5572 39.778 49.3871 39.1668 49.871 39.245C50.3548 39.3232 52.339 39.8136 52.339 39.8136C52.339 39.8136 52.1848 40.2187 52.6685 40.1689C53.1523 40.1191 54.7439 39.0957 55.347 39.1527C55.4802 39.1668 55.6204 39.1739 55.7466 39.1811L55.8447 39.8491L55.8588 43.2037L55.5363 46.0321L56.1952 47.5034L56.6019 57.4248L57.1488 51.128L57.5906 49.7776L57.7729 44.2554L58.1095 51.8173L58.6494 41.5122L58.3057 39.515C60.4303 39.8918 63.7396 40.5669 64.1182 41.164C64.6791 42.0522 65.3734 41.9741 65.198 41.164C65.0789 40.6237 64.532 40.1689 64.0972 39.8989C63.5364 39.5577 66.46 40.24 66.4671 40.24C67.7361 40.6308 69.6432 41.1213 70.0149 41.0858C70.5126 41.0289 70.7441 41.1426 71.0176 41.4269C71.2911 41.7111 71.4031 42.3721 72.4128 42.2086C73.4225 42.0522 73.8431 41.8036 74.8668 42.2086C75.8904 42.6137 77.1946 42.4859 77.9378 42.4929C78.6601 42.5 79.1648 42.0025 78.4076 41.6258ZM54.9332 34.4832L55.0664 33.0477L55.3118 30.1267L55.5011 34.6964C55.3118 34.6325 55.1225 34.5614 54.9332 34.4832Z" fill="#F3F4F6"/>
</svg>
