<svg width="300" height="25" viewBox="0 0 300 25" fill="none" xmlns="http://www.w3.org/2000/svg">
<path d="M297.114 16.4138C296.829 16.2652 296.493 16.4867 296.282 16.1755C296.071 15.8614 295.435 15.6596 295.435 15.6596C295.435 15.6596 295.11 15.4325 294.79 15.5362C294.471 15.64 294.228 15.2755 294.228 15.2755C294.228 15.2755 293.909 15.3736 293.747 15.1493C293.586 14.925 292.427 14.6923 292.427 14.6923C292.427 14.6923 291.839 14.7905 291.786 14.5437C291.733 14.2969 291.643 14.1708 291.551 14.224C291.458 14.2745 291.501 14.3867 291.268 14.3531C291.036 14.3194 290.761 14.2774 290.542 14.1428C290.32 14.0082 290.117 14.0054 289.945 14.0503C289.85 14.0755 289.679 14.0166 289.544 13.9605L289.549 13.5596L289.716 13.1054L289.734 10.6381L289.932 10.1615L290.056 12.2979L290.249 7.5652L290.088 7.26519L290.289 6.85585L290.186 6.72969L290.207 6.2082L289.837 5.36427L289.359 5.10071L289.193 4.92969L289.024 3.3652L288.776 4.98296L288.689 5.06427L288.62 4.97175L288.477 4.0353L288.367 5.25773L288.266 4.88483L288.116 5.48483L287.902 5.67829L287.746 6.53063L287.775 6.69321L287.891 7.07733L287.894 7.37457V8.02223L287.762 8.45398V9.93437L287.97 11.2521L288.063 10.3017L288.198 10.739L288.058 12.5334L288.089 13.4951C288.007 13.4502 287.931 13.397 287.857 13.3409C287.857 13.3409 287.672 13.369 287.437 13.2147C287.202 13.0633 287.194 13.254 286.946 13.1586C286.698 13.0633 286.891 12.7886 286.669 12.7913C286.447 12.7942 286.209 12.8727 285.549 12.6988C285.549 12.6988 285.465 12.6736 285.328 12.6316V12.1269L285.38 11.7596L285.391 8.8998C285.391 8.8998 285.507 8.25771 285.526 8.26056C285.541 8.26334 285.533 11.1904 285.533 11.1904L285.655 10.8933L285.824 6.67079L285.613 5.94464L285.655 4.4166L285.916 3.54745L285.739 2.60259L285.467 2.49044L285.235 1.84277L285.111 2.17362L284.652 1.94652L284.517 1.21474L284.34 2.09511L284.179 0.586702L283.926 2.33062L283.545 2.81847L283.511 3.16053L283.35 3.63156L283.421 4.16708L283.305 4.61848L283.458 4.91287L283.545 7.34087L283.543 7.35772L283.585 7.49231L283.577 7.725L283.545 9.19975L283.733 9.97364L283.741 11.9951L283.751 12.1045C283.643 12.0596 283.561 12.0203 283.522 11.9923C283.279 11.8129 283.096 11.4372 282.64 11.4007C282.479 11.3222 282.479 11.2325 282.267 11.1427C282.056 11.0531 281.634 10.8007 281.467 10.8147C281.298 10.8287 281.09 10.8736 281.09 10.8736L281.003 10.8428V10.8371L281.042 8.72873L280.921 8.20166L280.958 6.26707L281.071 5.78483L281.153 7.86522L281.248 4.96894L281.436 4.43623L281.393 3.94278L281.375 3.47455L281.338 2.84371L281.246 2.27455L281.082 2.23249L280.937 0.925955L280.747 2.04184L280.683 1.01006L280.543 1.67735L280.427 -0.00769043L280.023 1.72502L279.5 1.92969L278.764 2.13156L278.378 2.9166L278.386 4.49231L278.677 5.30259L278.655 6.71006L279.012 7.75306L278.795 8.24928L278.883 10.2203L278.888 10.3297C278.872 10.3269 278.856 10.3241 278.84 10.3185C278.603 10.2456 278.642 10.0016 278.497 9.92031C278.497 9.92031 278.141 10.1531 277.634 10.0213C277.129 9.88668 276.097 9.50819 276.097 9.50819C276.097 9.50819 276.055 9.4942 275.981 9.47456L275.976 8.91101L275.973 8.35303L276.171 7.79232L276.192 6.66243L276.261 6.49136L276.237 6.02595L276.393 5.71193L276.512 5.24651L276.226 3.84464L276.116 4.42782L275.917 2.06147L275.553 4.0325L275.363 2.84091L275.173 3.67922L274.581 3.63997L273.935 4.1839L273.937 4.57642L273.747 4.99137L273.795 5.54932L273.755 5.95866L273.763 6.81944L273.541 7.67452L273.845 9.03153V9.04838C273.285 9.0848 272.192 8.95306 271.904 8.77642C271.609 8.59699 271.498 8.37266 271.175 8.37266C270.853 8.37266 270.888 8.27734 270.616 8.07828C270.346 7.87922 270.043 7.68016 269.995 7.67173C269.866 7.64931 269.797 7.55399 269.713 7.50073C269.578 7.41662 269.364 7.39135 269.224 7.36336C269.148 7.3493 269.061 7.32409 268.987 7.36051C268.929 7.38856 268.889 7.4334 268.849 7.47831C268.797 7.54278 268.736 7.60162 268.683 7.66331C268.628 7.73063 267.82 7.98853 267.754 8.43156C267.698 8.79605 267.257 9.03996 268.092 10.1026C268.683 10.8568 270.354 10.6746 270.468 10.8988C270.579 11.1232 271.043 10.9914 271.17 11.0783C271.297 11.168 271.968 11.8185 272.224 11.8297C272.477 11.8381 272.519 11.7316 272.646 11.8297C272.773 11.9278 273.325 12.068 273.325 12.068C273.325 12.068 273.562 12.2166 273.877 12.2334L273.879 12.7269L273.948 13.0381L274.043 17.7989L274.22 13.9212L274.323 14.2969L274.349 17.5493L274.558 18.5166L274.526 19.6073L274.595 20.0082L274.603 21.0372L274.845 23.5072L275.083 21.0343L275.057 19.7334L275.218 19.1614L275.228 17.3194L275.368 20.3418L275.572 15.6652L275.54 15.354L275.886 14.2969L275.878 13.2456L276.007 12.9624L276.005 12.4381L276.182 12.4633C276.182 12.4633 277.335 12.5447 277.362 12.8222C277.386 13.097 277.784 13.4474 278.542 13.582C278.999 13.6044 279.07 13.9017 279.07 13.9017C279.07 13.9017 279.081 13.9269 279.099 13.9633L279.102 14.0082L279.083 15.0596L279.26 15.8979L279.242 16.8848L279.329 17.4203L279.429 21.3652L279.553 19.554L279.58 22.1755L279.712 24.0596L280.047 19.8344L280.007 18.5923L280.213 17.8773L280.269 15.0371L280.395 14.0082C280.411 14.0054 280.43 14.0026 280.446 13.9998L280.472 17.7372L280.765 13.9521C280.902 13.9297 280.992 13.9157 280.992 13.9157C280.992 13.9157 281.407 13.7587 281.533 14.0278C281.66 14.2969 281.782 14.6054 281.89 14.5633C281.998 14.5213 282.196 14.4203 282.286 14.6502C282.376 14.8801 282.444 14.8858 282.104 14.9222C282.08 14.925 282.075 15.0344 282.249 15.1045C282.423 15.1745 282.46 15.1941 282.587 15.1045C283.096 14.7428 283.411 14.8241 283.411 14.8241C283.411 14.8241 283.825 14.7119 283.944 14.8634C283.955 14.8773 283.965 14.8913 283.973 14.9026L283.989 16.4082L283.857 17.0587L284.158 19.9409L284.274 17.5998L284.454 17.883L284.541 21.9147L284.733 20.2017V19.3157L284.931 18.7802L284.934 16.0017L285.124 15.3232C285.24 15.3624 285.333 15.4128 285.37 15.4745C285.496 15.6848 286.186 15.4437 286.368 15.4745C286.55 15.5054 287.297 15.6989 287.297 15.6989C287.297 15.6989 287.239 15.8587 287.421 15.839C287.603 15.8194 288.203 15.4156 288.43 15.4381C288.48 15.4437 288.533 15.4465 288.58 15.4493L288.617 15.7129L288.623 17.0362L288.501 18.1521L288.749 18.7325L288.902 22.6465L289.108 20.1624L289.275 19.6297L289.343 17.4512L289.47 20.4344L289.674 16.3689L289.544 15.5811C290.344 15.7297 291.59 15.996 291.733 16.2316C291.944 16.582 292.206 16.5512 292.14 16.2316C292.095 16.0185 291.889 15.839 291.725 15.7325C291.514 15.5979 292.615 15.8671 292.617 15.8671C293.095 16.0212 293.813 16.2147 293.953 16.2007C294.141 16.1783 294.228 16.2232 294.331 16.3353C294.434 16.4474 294.476 16.7082 294.856 16.6437C295.237 16.582 295.395 16.4839 295.78 16.6437C296.166 16.8035 296.657 16.7531 296.937 16.7559C297.209 16.7586 297.399 16.5624 297.114 16.4138ZM288.274 13.596L288.324 13.0297L288.417 11.8774L288.488 13.6801C288.417 13.6549 288.345 13.6269 288.274 13.596Z" fill="white"/>
<path d="M0 22.3016V1.66821H7.85568C9.5547 1.66821 11.0528 1.94259 12.3499 2.49135C13.647 3.04011 14.7248 3.77179 15.6017 4.70469C16.4787 5.63758 17.1363 6.71681 17.5748 7.97895C18.0133 9.22281 18.2508 10.5581 18.2508 11.9849C18.2508 13.558 17.995 14.9665 17.5017 16.2469C17.0085 17.5091 16.3142 18.6066 15.4008 19.5029C14.4873 20.3992 13.3912 21.0943 12.1124 21.5882C10.8335 22.0821 9.40855 22.3382 7.83741 22.3382H0V22.3016ZM12.8614 11.9483C12.8614 11.1069 12.7518 10.3386 12.5325 9.66182C12.3133 8.96672 11.9845 8.38138 11.5643 7.88749C11.1441 7.39361 10.6326 7.00948 10.0297 6.7351C9.42682 6.46072 8.73259 6.31438 7.98356 6.31438H5.29802V17.6371H7.96529C8.73259 17.6371 9.42681 17.4908 10.048 17.2164C10.6508 16.9237 11.1806 16.5396 11.5826 16.0274C12.0027 15.5153 12.3133 14.9116 12.5325 14.2165C12.7518 13.5214 12.8614 12.7715 12.8614 11.9483Z" fill="white"/>
<path d="M57.3828 22.3016V1.66821H65.3116C66.9375 1.66821 68.4356 1.94259 69.7327 2.49135C71.0298 3.04011 72.1076 3.77179 72.9846 4.70469C73.8615 5.63758 74.5192 6.71681 74.9576 7.97895C75.3961 9.22281 75.6336 10.5581 75.6336 11.9849C75.6336 13.558 75.3778 14.9665 74.8845 16.2469C74.3913 17.5091 73.697 18.6066 72.7836 19.5029C71.8701 20.3992 70.774 21.0943 69.4952 21.5882C68.2163 22.0821 66.7914 22.3382 65.2202 22.3382H57.3828V22.3016ZM70.2442 11.9483C70.2442 11.1069 70.1346 10.3386 69.9154 9.66182C69.6961 8.96672 69.3673 8.38138 68.9471 7.88749C68.5269 7.39361 68.0154 7.00948 67.4125 6.7351C66.8096 6.46072 66.1154 6.31438 65.3664 6.31438H62.6991V17.6371H65.3664C66.1337 17.6371 66.8279 17.4908 67.449 17.2164C68.0519 16.9237 68.5817 16.5396 68.9836 16.0274C69.4038 15.5153 69.7144 14.9116 69.9336 14.2165C70.1346 13.5214 70.2442 12.7715 70.2442 11.9483Z" fill="white"/>
<path d="M34.8023 17.6554L32.9754 22.3199H20.1323V1.66821H34.8389V6.33267H25.3573V9.51548H33.9802V14.1068H25.3573V17.6554H34.8023Z" fill="white"/>
<path d="M43.261 1.66821H48.76L56.6157 22.3016H51.1533L49.6735 18.3139H42.1832L40.7399 22.3016H35.4419L43.261 1.66821ZM48.0658 13.869L45.9466 8.08871L43.8274 13.869H48.0658Z" fill="white"/>
<path d="M105.942 1.70483L110.254 9.75331L114.583 1.70483H120.302L112.811 15.0214V22.3199H107.422V14.9665L100.114 1.72313H105.942V1.70483Z" fill="white"/>
<path d="M99.8037 13.5397C99.1094 12.68 98.1777 12.0764 96.9902 11.7288C97.9768 11.2898 98.7258 10.613 99.219 9.73499C99.7123 8.85697 99.9681 7.92408 99.9681 6.9546C99.9681 6.29609 99.8585 5.65587 99.6392 5.01565C99.42 4.39372 99.0912 3.82667 98.6892 3.33279C98.2873 2.8389 97.7758 2.43648 97.2094 2.12551C96.6248 1.81455 95.9672 1.66821 95.2547 1.66821H84.3115V22.3199H93.4278C94.4326 22.3199 95.4008 22.2101 96.296 22.0089C97.2094 21.8077 97.995 21.4967 98.671 21.0577C99.3469 20.637 99.895 20.0883 100.279 19.4115C100.662 18.7347 100.863 17.9481 100.863 17.0152C100.827 15.5701 100.48 14.3994 99.8037 13.5397ZM88.8605 6.02171H93.0989C93.446 6.02171 93.8662 6.16805 94.122 6.46072C94.3778 6.75339 94.6335 7.24727 94.6335 7.92408C94.6335 8.69234 94.3595 9.22281 94.0672 9.4789C93.7749 9.73499 93.3181 9.86303 92.9528 9.86303H88.8788V6.02171H88.8605ZM94.6518 17.6188C94.3229 17.8932 93.8297 18.0396 93.446 18.0396H88.9336V13.9239H93.6287C93.9941 13.9239 94.4691 14.0885 94.7431 14.3994C95.0172 14.7104 95.2912 15.2409 95.2912 15.9726C95.2912 16.7957 94.9806 17.3445 94.6518 17.6188Z" fill="white"/>
<path d="M125.879 22.2451V1.67151H133.715C135.403 1.67151 136.903 1.94276 138.196 2.48527C139.488 3.02778 140.571 3.75808 141.446 4.69704C142.322 5.61513 142.968 6.72101 143.405 7.95209C143.843 9.20403 144.072 10.5186 144.072 11.9374C144.072 13.5024 143.822 14.9212 143.343 16.1732C142.843 17.446 142.155 18.5101 141.238 19.4282C140.321 20.3255 139.238 21.014 137.966 21.5148C136.695 22.0156 135.278 22.2451 133.715 22.2451H125.879ZM138.696 11.9166C138.696 11.0819 138.591 10.3308 138.362 9.62134C138.133 8.93278 137.82 8.34854 137.404 7.84776C136.987 7.36785 136.466 6.9714 135.862 6.70014C135.257 6.42889 134.569 6.28283 133.819 6.28283H131.173V17.5712H133.84C134.611 17.5712 135.299 17.4251 135.903 17.1539C136.508 16.8617 137.029 16.4653 137.445 15.9645C137.862 15.4637 138.175 14.8586 138.383 14.1701C138.591 13.4815 138.696 12.7303 138.696 11.9166Z" fill="white"/>
<path d="M151.179 1.67151H156.66L164.495 22.2451H159.035L157.556 18.2806H150.095L148.657 22.2451H143.385L151.179 1.67151ZM155.972 13.8362L153.867 8.07728L151.762 13.8362H155.972Z" fill="white"/>
<path d="M181.938 22.2451V1.67151H187.335V17.592H196.088L194.254 22.2451H181.938Z" fill="white"/>
<path d="M197.88 22.2451V1.67151H203.277V22.2451H197.88Z" fill="white"/>
<path d="M243.768 1.67151V22.2451H238.371V14.1075H230.431V22.2451H225.034V1.67151H230.431V9.47528H238.371V1.67151H243.768Z" fill="white"/>
<path d="M261.19 6.28283H256.668V22.2451H251.271V6.28283H245.623V1.67151H263.045L261.19 6.28283Z" fill="white"/>
<path d="M166.308 1.65063L170.622 9.7048L174.936 1.65063H180.646L173.164 14.963V22.2451H167.788V14.9004L160.473 1.65063H166.308Z" fill="white"/>
<path d="M223.554 10.7064H216.114L214.239 15.109H219.282V16.4653C218.261 17.2791 217.052 17.8424 215.843 17.8424C215.051 17.8424 214.343 17.6964 213.697 17.4251C213.051 17.1539 212.509 16.7574 212.051 16.2566C211.592 15.7559 211.238 15.1508 210.967 14.4622C210.717 13.7736 210.592 12.9807 210.592 12.1252C210.592 11.2906 210.717 10.5186 210.967 9.80913C211.217 9.0997 211.571 8.49459 212.03 7.97295C212.488 7.45131 213.009 7.05486 213.634 6.78361C213.676 6.76274 213.718 6.74187 213.759 6.72101C214.301 6.47062 214.989 6.30369 215.76 6.30369C215.885 6.30369 216.01 6.30369 216.135 6.32456C216.198 6.32456 216.26 6.32456 216.323 6.34542H216.343C216.573 6.36629 216.802 6.40802 217.01 6.47062C217.719 6.61668 218.365 6.80447 218.99 7.07572C219.699 7.36784 220.345 7.74343 220.949 8.16074L222.762 3.84154C222.22 3.36163 221.637 2.94431 220.991 2.5896C220.261 2.19315 219.449 1.88016 218.594 1.67151C217.719 1.46285 216.823 1.35852 215.885 1.35852C214.364 1.35852 212.967 1.62977 211.655 2.17228C210.342 2.71479 209.216 3.44509 208.237 4.38405C207.278 5.32301 206.507 6.42889 205.965 7.7017C205.424 8.9745 205.132 10.3516 205.132 11.8331C205.132 13.5441 205.403 15.0673 205.965 16.4027C206.507 17.7381 207.257 18.8649 208.174 19.8038C209.091 20.7219 210.175 21.4313 211.425 21.9112C212.655 22.3912 213.968 22.6415 215.322 22.6415C218.49 22.6415 221.407 21.7443 223.554 19.2613V10.7064Z" fill="white"/>
</svg>
