<svg width="34" height="34" viewBox="0 0 34 34" fill="none" xmlns="http://www.w3.org/2000/svg">
<path d="M34 17C34 26.3911 26.3774 34 16.9726 34C9.17177 34 2.60484 28.7698 0.589516 21.6339L7.11532 24.3278C7.55403 26.5282 9.50766 28.194 11.8383 28.194C14.5254 28.194 16.7669 25.973 16.6504 23.1556L22.4427 19.029C26.0141 19.1181 29.0097 16.2254 29.0097 12.6198C29.0097 9.08266 26.1306 6.21048 22.5867 6.21048C19.0427 6.21048 16.1637 9.08952 16.1637 12.6198V12.702L12.1056 18.5766C11.0431 18.5149 10.0012 18.8097 9.12379 19.406L0 15.6359C0.699194 6.88226 8.02702 0 16.9726 0C26.3774 0 34 7.60887 34 17ZM10.673 25.7948L8.58226 24.931C8.96645 25.7288 9.62982 26.3581 10.4468 26.6996C12.2907 27.4673 14.4089 26.5899 15.1766 24.7528C15.5468 23.8617 15.5536 22.8815 15.1835 21.9903C14.8133 21.0992 14.121 20.4 13.2298 20.0298C12.3456 19.6597 11.3996 19.6734 10.5633 19.9887L12.7226 20.8798C14.0798 21.4419 14.7242 22.998 14.1552 24.3552C13.5863 25.7194 12.0302 26.3569 10.673 25.7948ZM22.5867 16.8903C20.2286 16.8903 18.3093 14.971 18.3093 12.6198C18.3093 10.2685 20.2286 8.34919 22.5867 8.34919C24.9448 8.34919 26.8641 10.2685 26.8641 12.6198C26.8641 14.971 24.9516 16.8903 22.5867 16.8903ZM22.5935 15.821C24.369 15.821 25.8085 14.3815 25.8085 12.6129C25.8085 10.8375 24.369 9.40484 22.5935 9.40484C20.8181 9.40484 19.3786 10.8444 19.3786 12.6129C19.3855 14.3815 20.825 15.821 22.5935 15.821Z" fill="white"/>
</svg>
